<mxfile host="65bd71144e">
    <diagram id="BO4f_YWSRwQBq1X9HVu2" name="Page-1">
        <mxGraphModel dx="3510" dy="3032" grid="1" gridSize="10" guides="1" tooltips="1" connect="1" arrows="1" fold="1" page="1" pageScale="1" pageWidth="827" pageHeight="1169" math="0" shadow="0">
            <root>
                <mxCell id="0"/>
                <mxCell id="1" parent="0"/>
                <mxCell id="26" value="" style="edgeStyle=orthogonalEdgeStyle;rounded=0;orthogonalLoop=1;jettySize=auto;html=1;exitX=0.5;exitY=0;exitDx=0;exitDy=0;entryX=0.5;entryY=1;entryDx=0;entryDy=0;" parent="1" source="152" target="135" edge="1">
                    <mxGeometry relative="1" as="geometry">
                        <Array as="points"/>
                        <mxPoint x="60" y="-1290" as="sourcePoint"/>
                        <mxPoint x="260" y="-1290" as="targetPoint"/>
                    </mxGeometry>
                </mxCell>
                <mxCell id="48" value="&lt;span style=&quot;color: rgb(78 , 201 , 176) ; font-family: &amp;#34;menlo&amp;#34; , &amp;#34;monaco&amp;#34; , &amp;#34;courier new&amp;#34; , monospace , &amp;#34;menlo&amp;#34; , &amp;#34;monaco&amp;#34; , &amp;#34;courier new&amp;#34; , monospace ; font-size: 16px ; background-color: rgb(30 , 30 , 30)&quot;&gt;&lt;br&gt;GObject extends Phaser.Event.EventEmitter&lt;/span&gt;" style="swimlane;fontStyle=0;align=center;verticalAlign=top;childLayout=stackLayout;horizontal=1;startSize=55;horizontalStack=0;resizeParent=1;resizeParentMax=0;resizeLast=0;collapsible=0;marginBottom=0;html=1;" parent="1" vertex="1">
                    <mxGeometry x="-2410" y="-80" width="770" height="610" as="geometry"/>
                </mxCell>
                <mxCell id="49" value="&lt;font style=&quot;font-size: 15px&quot;&gt;attributes&lt;/font&gt;" style="text;html=1;strokeColor=none;fillColor=none;align=center;verticalAlign=middle;spacingLeft=4;spacingRight=4;overflow=hidden;rotatable=0;points=[[0,0.5],[1,0.5]];portConstraint=eastwest;" parent="48" vertex="1">
                    <mxGeometry y="55" width="770" height="20" as="geometry"/>
                </mxCell>
                <mxCell id="50" value="&lt;div style=&quot;font-size: 16px&quot;&gt;&lt;font style=&quot;font-size: 16px&quot;&gt;&amp;nbsp; &amp;nbsp; id:number,&lt;/font&gt;&lt;/div&gt;&lt;div style=&quot;font-size: 16px&quot;&gt;&lt;font style=&quot;font-size: 16px&quot;&gt;&amp;nbsp; &amp;nbsp; name:string,&lt;/font&gt;&lt;/div&gt;&lt;div style=&quot;font-size: 16px&quot;&gt;&lt;font style=&quot;font-size: 16px&quot;&gt;&amp;nbsp; &amp;nbsp; x:number,&lt;/font&gt;&lt;/div&gt;&lt;div style=&quot;font-size: 16px&quot;&gt;&lt;font style=&quot;font-size: 16px&quot;&gt;&amp;nbsp; &amp;nbsp; y:number,&lt;/font&gt;&lt;/div&gt;&lt;div style=&quot;font-size: 16px&quot;&gt;&lt;font style=&quot;font-size: 16px&quot;&gt;&amp;nbsp; &amp;nbsp; depth:number,&lt;/font&gt;&lt;/div&gt;&lt;div style=&quot;font-size: 16px&quot;&gt;&amp;nbsp; &amp;nbsp; dpr:number,&lt;/div&gt;&lt;div style=&quot;font-size: 16px&quot;&gt;&lt;font style=&quot;font-size: 16px&quot;&gt;&amp;nbsp; &amp;nbsp; scale:number,&lt;/font&gt;&lt;/div&gt;&lt;div style=&quot;font-size: 16px&quot;&gt;&lt;font style=&quot;font-size: 16px&quot;&gt;&amp;nbsp; &amp;nbsp; origin:number,&lt;/font&gt;&lt;/div&gt;&lt;div style=&quot;font-size: 16px&quot;&gt;&lt;font style=&quot;font-size: 16px&quot;&gt;&amp;nbsp; &amp;nbsp; width:number,&lt;/font&gt;&lt;/div&gt;&lt;div style=&quot;font-size: 16px&quot;&gt;&lt;font style=&quot;font-size: 16px&quot;&gt;&amp;nbsp; &amp;nbsp; height:number,&lt;/font&gt;&lt;/div&gt;&lt;div style=&quot;font-size: 16px&quot;&gt;&lt;font style=&quot;font-size: 16px&quot;&gt;&amp;nbsp; &amp;nbsp; dpr:number,&lt;/font&gt;&lt;/div&gt;&lt;div style=&quot;font-size: 16px&quot;&gt;&lt;font style=&quot;font-size: 16px&quot;&gt;&amp;nbsp; &amp;nbsp; angle:number,&lt;/font&gt;&lt;/div&gt;&lt;div style=&quot;font-size: 16px&quot;&gt;&lt;font style=&quot;font-size: 16px&quot;&gt;&amp;nbsp; &amp;nbsp; origin:number,&lt;/font&gt;&lt;/div&gt;&lt;div style=&quot;font-size: 16px&quot;&gt;&lt;font style=&quot;font-size: 16px&quot;&gt;&amp;nbsp; &amp;nbsp; visible:boolean,&lt;/font&gt;&lt;/div&gt;&lt;div style=&quot;font-size: 16px&quot;&gt;&lt;font style=&quot;font-size: 16px&quot;&gt;&amp;nbsp; &amp;nbsp; alpha:number,&lt;/font&gt;&lt;/div&gt;&lt;div style=&quot;font-size: 16px&quot;&gt;&lt;font style=&quot;font-size: 16px&quot;&gt;&amp;nbsp; &amp;nbsp; blendMode:string,&lt;/font&gt;&lt;/div&gt;&lt;div style=&quot;font-size: 16px&quot;&gt;&lt;font style=&quot;font-size: 16px&quot;&gt;&amp;nbsp; &amp;nbsp; soundGroup:{up:string,down:string,over:string,out:string,dragStrart:string,drag:string,dragEnd:string}&lt;/font&gt;&lt;/div&gt;&lt;div style=&quot;font-size: 16px&quot;&gt;&lt;font style=&quot;font-size: 16px&quot;&gt;&amp;nbsp; &amp;nbsp; displayObject:Phaser.GameObject.Sprite&lt;/font&gt;&lt;/div&gt;&lt;div style=&quot;font-size: 16px&quot;&gt;&lt;font style=&quot;font-size: 16px&quot;&gt;&amp;nbsp; &amp;nbsp; parent:GComponent,&lt;/font&gt;&lt;/div&gt;" style="text;html=1;strokeColor=none;fillColor=none;align=left;verticalAlign=middle;spacingLeft=4;spacingRight=4;overflow=hidden;rotatable=0;points=[[0,0.5],[1,0.5]];portConstraint=eastwest;" parent="48" vertex="1">
                    <mxGeometry y="75" width="770" height="395" as="geometry"/>
                </mxCell>
                <mxCell id="53" value="" style="line;strokeWidth=1;fillColor=none;align=left;verticalAlign=middle;spacingTop=-1;spacingLeft=3;spacingRight=3;rotatable=0;labelPosition=right;points=[];portConstraint=eastwest;" parent="48" vertex="1">
                    <mxGeometry y="470" width="770" height="8" as="geometry"/>
                </mxCell>
                <mxCell id="54" value="&lt;font style=&quot;font-size: 15px&quot;&gt;operations&lt;/font&gt;" style="text;html=1;strokeColor=none;fillColor=none;align=center;verticalAlign=middle;spacingLeft=4;spacingRight=4;overflow=hidden;rotatable=0;points=[[0,0.5],[1,0.5]];portConstraint=eastwest;" parent="48" vertex="1">
                    <mxGeometry y="478" width="770" height="22" as="geometry"/>
                </mxCell>
                <mxCell id="55" value="&lt;div style=&quot;font-size: 15px&quot;&gt;&lt;font style=&quot;font-size: 15px&quot;&gt;&amp;nbsp; &amp;nbsp; c&lt;/font&gt;&lt;span&gt;onstructor(scene:Phaser.Scene)Ï&lt;/span&gt;&lt;/div&gt;&lt;div style=&quot;font-size: 15px&quot;&gt;&lt;font style=&quot;font-size: 15px&quot;&gt;&amp;nbsp; &amp;nbsp; setInteractive(boo: boolean),&lt;/font&gt;&lt;/div&gt;&lt;div style=&quot;font-size: 15px&quot;&gt;&lt;font style=&quot;font-size: 15px&quot;&gt;&amp;nbsp; &amp;nbsp; rotation(value: number),&lt;/font&gt;&lt;/div&gt;&lt;div style=&quot;font-size: 15px&quot;&gt;&lt;font style=&quot;font-size: 15px&quot;&gt;&amp;nbsp; &amp;nbsp; createDisplayObject();&lt;br&gt;&lt;/font&gt;&lt;/div&gt;&lt;div style=&quot;font-size: 15px&quot;&gt;&lt;font style=&quot;font-size: 15px&quot;&gt;&amp;nbsp; &amp;nbsp; setDisplayObject(value:Phaser.GameObject.Container)&lt;/font&gt;&lt;/div&gt;" style="text;html=1;strokeColor=none;fillColor=none;align=left;verticalAlign=middle;spacingLeft=4;spacingRight=4;overflow=hidden;rotatable=0;points=[[0,0.5],[1,0.5]];portConstraint=eastwest;" parent="48" vertex="1">
                    <mxGeometry y="500" width="770" height="110" as="geometry"/>
                </mxCell>
                <mxCell id="75" value="&lt;span style=&quot;color: rgb(78 , 201 , 176) ; font-family: &amp;#34;menlo&amp;#34; , &amp;#34;monaco&amp;#34; , &amp;#34;courier new&amp;#34; , monospace , &amp;#34;menlo&amp;#34; , &amp;#34;monaco&amp;#34; , &amp;#34;courier new&amp;#34; , monospace ; font-size: 16px ; background-color: rgb(30 , 30 , 30)&quot;&gt;&lt;br&gt;ScrollPane extends Phaser.Events.EventEmmiter&lt;/span&gt;" style="swimlane;fontStyle=0;align=center;verticalAlign=top;childLayout=stackLayout;horizontal=1;startSize=55;horizontalStack=0;resizeParent=1;resizeParentMax=0;resizeLast=0;collapsible=0;marginBottom=0;html=1;rounded=0;sketch=0;" parent="1" vertex="1">
                    <mxGeometry x="-2410" y="530" width="480" height="550" as="geometry"/>
                </mxCell>
                <mxCell id="76" value="attributes" style="text;html=1;strokeColor=none;fillColor=none;align=center;verticalAlign=middle;spacingLeft=4;spacingRight=4;overflow=hidden;rotatable=0;points=[[0,0.5],[1,0.5]];portConstraint=eastwest;" parent="75" vertex="1">
                    <mxGeometry y="55" width="480" height="20" as="geometry"/>
                </mxCell>
                <mxCell id="77" value="&lt;font style=&quot;font-size: 15px&quot;&gt;UIOwner:GComponent&lt;br&gt;container:Phaser.GameObjects.Container&lt;br&gt;maskContainer:Phaser.GameObjects.Container&lt;br&gt;viewWidth:number&lt;br&gt;viewHeight:number&lt;br&gt;contentWidth:number&lt;br&gt;contentHeight:number&lt;br&gt;vScrollBar:GScrollBar&lt;br&gt;hScrollBar:GScrollBar&lt;br&gt;header:GComponent&lt;br&gt;footer:GComponent&lt;br&gt;scrollType:number(横，竖)&lt;br&gt;scrollSpeed:number&lt;br&gt;&lt;/font&gt;" style="text;html=1;strokeColor=none;fillColor=none;align=left;verticalAlign=middle;spacingLeft=4;spacingRight=4;overflow=hidden;rotatable=0;points=[[0,0.5],[1,0.5]];portConstraint=eastwest;" parent="75" vertex="1">
                    <mxGeometry y="75" width="480" height="245" as="geometry"/>
                </mxCell>
                <mxCell id="80" value="" style="line;strokeWidth=1;fillColor=none;align=left;verticalAlign=middle;spacingTop=-1;spacingLeft=3;spacingRight=3;rotatable=0;labelPosition=right;points=[];portConstraint=eastwest;" parent="75" vertex="1">
                    <mxGeometry y="320" width="480" height="8" as="geometry"/>
                </mxCell>
                <mxCell id="81" value="operations" style="text;html=1;strokeColor=none;fillColor=none;align=center;verticalAlign=middle;spacingLeft=4;spacingRight=4;overflow=hidden;rotatable=0;points=[[0,0.5],[1,0.5]];portConstraint=eastwest;" parent="75" vertex="1">
                    <mxGeometry y="328" width="480" height="20" as="geometry"/>
                </mxCell>
                <mxCell id="82" value="&lt;span style=&quot;font-size: 15px&quot;&gt;scrollTop(tweenBoo:boolean=false)&lt;br&gt;scrollBottom(tweenBoo:boolean=false)&lt;br&gt;// ratio 翻滚按照一页尺寸来定义&lt;br&gt;&lt;/span&gt;&lt;span style=&quot;font-size: 15px&quot;&gt;scrollUp(ratio:number=1,tweenBoo:boolean=false)&lt;br&gt;scrollDown(&lt;/span&gt;&lt;span style=&quot;font-size: 15px&quot;&gt;ratio:number=1,tweenBoo:boolean=false&lt;/span&gt;&lt;span style=&quot;font-size: 15px&quot;&gt;)&lt;br&gt;scrollLeft(&lt;/span&gt;&lt;span style=&quot;font-size: 15px&quot;&gt;ratio:number=1,tweenBoo:boolean=false&lt;/span&gt;&lt;span style=&quot;font-size: 15px&quot;&gt;)&lt;br&gt;scrollRight(&lt;/span&gt;&lt;span style=&quot;font-size: 15px&quot;&gt;ratio:number=1,tweenBoo:boolean=false)&lt;br&gt;&lt;/span&gt;&lt;span style=&quot;font-size: 15px&quot;&gt;setPosX(val:number)&lt;br&gt;setPosY(val:number)&lt;br&gt;setSize(width,height)&lt;br&gt;dispose()&lt;br&gt;&lt;br&gt;&lt;/span&gt;" style="text;html=1;strokeColor=none;fillColor=none;align=left;verticalAlign=middle;spacingLeft=4;spacingRight=4;overflow=hidden;rotatable=0;points=[[0,0.5],[1,0.5]];portConstraint=eastwest;" parent="75" vertex="1">
                    <mxGeometry y="348" width="480" height="202" as="geometry"/>
                </mxCell>
                <mxCell id="83" value="&lt;br style=&quot;color: rgb(78 , 201 , 176) ; font-family: &amp;#34;menlo&amp;#34; , &amp;#34;monaco&amp;#34; , &amp;#34;courier new&amp;#34; , monospace , &amp;#34;menlo&amp;#34; , &amp;#34;monaco&amp;#34; , &amp;#34;courier new&amp;#34; , monospace ; font-size: 16px&quot;&gt;&lt;span style=&quot;color: rgb(78 , 201 , 176) ; font-family: &amp;#34;menlo&amp;#34; , &amp;#34;monaco&amp;#34; , &amp;#34;courier new&amp;#34; , monospace , &amp;#34;menlo&amp;#34; , &amp;#34;monaco&amp;#34; , &amp;#34;courier new&amp;#34; , monospace ; font-size: 16px ; background-color: rgb(30 , 30 , 30)&quot;&gt;GScrollBar extends GComponent&lt;/span&gt;" style="swimlane;fontStyle=0;align=center;verticalAlign=top;childLayout=stackLayout;horizontal=1;startSize=55;horizontalStack=0;resizeParent=1;resizeParentMax=0;resizeLast=0;collapsible=0;marginBottom=0;html=1;rounded=0;sketch=0;" parent="1" vertex="1">
                    <mxGeometry x="-1930" y="530" width="630" height="410" as="geometry"/>
                </mxCell>
                <mxCell id="84" value="attributes" style="text;html=1;strokeColor=none;fillColor=none;align=center;verticalAlign=middle;spacingLeft=4;spacingRight=4;overflow=hidden;rotatable=0;points=[[0,0.5],[1,0.5]];portConstraint=eastwest;" parent="83" vertex="1">
                    <mxGeometry y="55" width="630" height="20" as="geometry"/>
                </mxCell>
                <mxCell id="85" value="&lt;span style=&quot;font-size: 15px&quot;&gt;upBtn:GButton&lt;br&gt;downBtn:GButton&lt;br&gt;// 滑块&lt;br&gt;grip:GObject&lt;br&gt;// 滑道&lt;br&gt;bar:GObject&lt;br&gt;isVertical:boolean&lt;br&gt;scrollPane:ScrollPane&lt;br&gt;&lt;br&gt;&lt;/span&gt;" style="text;html=1;strokeColor=none;fillColor=none;align=left;verticalAlign=middle;spacingLeft=4;spacingRight=4;overflow=hidden;rotatable=0;points=[[0,0.5],[1,0.5]];portConstraint=eastwest;" parent="83" vertex="1">
                    <mxGeometry y="75" width="630" height="155" as="geometry"/>
                </mxCell>
                <mxCell id="88" value="" style="line;strokeWidth=1;fillColor=none;align=left;verticalAlign=middle;spacingTop=-1;spacingLeft=3;spacingRight=3;rotatable=0;labelPosition=right;points=[];portConstraint=eastwest;" parent="83" vertex="1">
                    <mxGeometry y="230" width="630" height="8" as="geometry"/>
                </mxCell>
                <mxCell id="89" value="operations" style="text;html=1;strokeColor=none;fillColor=none;align=center;verticalAlign=middle;spacingLeft=4;spacingRight=4;overflow=hidden;rotatable=0;points=[[0,0.5],[1,0.5]];portConstraint=eastwest;" parent="83" vertex="1">
                    <mxGeometry y="238" width="630" height="20" as="geometry"/>
                </mxCell>
                <mxCell id="90" value="&lt;span style=&quot;font-size: 15px&quot;&gt;upBtn.on(&quot;pointer.down&quot;);&lt;br&gt;&lt;/span&gt;&lt;span style=&quot;font-size: 15px&quot;&gt;downBtn.on(&quot;pointer.down&quot;);&lt;br&gt;&lt;/span&gt;&lt;span style=&quot;font-size: 15px&quot;&gt;grip.on(&quot;pointer.down&quot;);&lt;br&gt;scene.input.on(&quot;dragstart&quot;);&lt;br&gt;&lt;/span&gt;&lt;span style=&quot;font-size: 15px&quot;&gt;scene.input.on(&quot;drag&quot;);&lt;br&gt;&lt;/span&gt;&lt;span style=&quot;font-size: 15px&quot;&gt;scene.input.on(&quot;dragend&quot;);&lt;br&gt;&lt;/span&gt;&lt;span style=&quot;font-size: 15px&quot;&gt;dispose();&lt;br&gt;&lt;/span&gt;" style="text;html=1;strokeColor=none;fillColor=none;align=left;verticalAlign=middle;spacingLeft=4;spacingRight=4;overflow=hidden;rotatable=0;points=[[0,0.5],[1,0.5]];portConstraint=eastwest;" parent="83" vertex="1">
                    <mxGeometry y="258" width="630" height="152" as="geometry"/>
                </mxCell>
                <mxCell id="91" value="&lt;br style=&quot;color: rgb(78 , 201 , 176) ; font-family: &amp;#34;menlo&amp;#34; , &amp;#34;monaco&amp;#34; , &amp;#34;courier new&amp;#34; , monospace , &amp;#34;menlo&amp;#34; , &amp;#34;monaco&amp;#34; , &amp;#34;courier new&amp;#34; , monospace ; font-size: 16px&quot;&gt;&lt;span style=&quot;color: rgb(78 , 201 , 176) ; font-family: &amp;#34;menlo&amp;#34; , &amp;#34;monaco&amp;#34; , &amp;#34;courier new&amp;#34; , monospace , &amp;#34;menlo&amp;#34; , &amp;#34;monaco&amp;#34; , &amp;#34;courier new&amp;#34; , monospace ; font-size: 16px ; background-color: rgb(30 , 30 , 30)&quot;&gt;GButton extends GComponent&lt;/span&gt;" style="swimlane;fontStyle=0;align=center;verticalAlign=top;childLayout=stackLayout;horizontal=1;startSize=55;horizontalStack=0;resizeParent=1;resizeParentMax=0;resizeLast=0;collapsible=0;marginBottom=0;html=1;rounded=0;sketch=0;" parent="1" vertex="1">
                    <mxGeometry x="-2410" y="1090" width="630" height="460" as="geometry"/>
                </mxCell>
                <mxCell id="92" value="attributes" style="text;html=1;strokeColor=none;fillColor=none;align=center;verticalAlign=middle;spacingLeft=4;spacingRight=4;overflow=hidden;rotatable=0;points=[[0,0.5],[1,0.5]];portConstraint=eastwest;" parent="91" vertex="1">
                    <mxGeometry y="55" width="630" height="20" as="geometry"/>
                </mxCell>
                <mxCell id="93" value="&lt;font style=&quot;font-size: 15px&quot;&gt;textfield:Phaser.GameObjects.Text&lt;br&gt;icon:GImage&lt;br&gt;background:Phaser.GameObjects.Sprite(sprite支持pipeline)&lt;br&gt;buttonState:number(up,down,over,select,disabled)&lt;br&gt;buttonMode:boolean(手型等判断)&lt;br&gt;&lt;br&gt;&lt;br&gt;&lt;/font&gt;" style="text;html=1;strokeColor=none;fillColor=none;align=left;verticalAlign=middle;spacingLeft=4;spacingRight=4;overflow=hidden;rotatable=0;points=[[0,0.5],[1,0.5]];portConstraint=eastwest;" parent="91" vertex="1">
                    <mxGeometry y="75" width="630" height="95" as="geometry"/>
                </mxCell>
                <mxCell id="96" value="" style="line;strokeWidth=1;fillColor=none;align=left;verticalAlign=middle;spacingTop=-1;spacingLeft=3;spacingRight=3;rotatable=0;labelPosition=right;points=[];portConstraint=eastwest;" parent="91" vertex="1">
                    <mxGeometry y="170" width="630" height="8" as="geometry"/>
                </mxCell>
                <mxCell id="97" value="operations" style="text;html=1;strokeColor=none;fillColor=none;align=center;verticalAlign=middle;spacingLeft=4;spacingRight=4;overflow=hidden;rotatable=0;points=[[0,0.5],[1,0.5]];portConstraint=eastwest;" parent="91" vertex="1">
                    <mxGeometry y="178" width="630" height="20" as="geometry"/>
                </mxCell>
                <mxCell id="98" value="&lt;font style=&quot;font-size: 15px&quot;&gt;constructor(scene:Phaser.Scene,{normalRes,overRes,outRes,selectRes,disabledRes,text})&lt;br&gt;setDisplayObject(displayObject:Phaser.GameObjects.GameObject)&lt;br&gt;setFontStyle(style:Phaser.Style);&lt;br&gt;set text(text:string);&lt;br&gt;set icon(text:string);&lt;br&gt;set enabled(val:boolean);&lt;br&gt;set selected(val:boolean);&lt;br&gt;set state(state:number);&lt;br&gt;this.on(&quot;pointer.down&quot;);&lt;br&gt;this.on(&quot;pointer.up&quot;);&lt;br&gt;this.on(&quot;pointer.over&quot;);&lt;br&gt;this.on(&quot;pointer.out&quot;);&lt;br&gt;dispose();&lt;br&gt;&lt;/font&gt;" style="text;html=1;strokeColor=none;fillColor=none;align=left;verticalAlign=middle;spacingLeft=4;spacingRight=4;overflow=hidden;rotatable=0;points=[[0,0.5],[1,0.5]];portConstraint=eastwest;" parent="91" vertex="1">
                    <mxGeometry y="198" width="630" height="262" as="geometry"/>
                </mxCell>
                <mxCell id="99" value="&lt;br style=&quot;color: rgb(78 , 201 , 176) ; font-family: &amp;#34;menlo&amp;#34; , &amp;#34;monaco&amp;#34; , &amp;#34;courier new&amp;#34; , monospace , &amp;#34;menlo&amp;#34; , &amp;#34;monaco&amp;#34; , &amp;#34;courier new&amp;#34; , monospace ; font-size: 16px&quot;&gt;&lt;span style=&quot;color: rgb(78 , 201 , 176) ; font-family: &amp;#34;menlo&amp;#34; , &amp;#34;monaco&amp;#34; , &amp;#34;courier new&amp;#34; , monospace , &amp;#34;menlo&amp;#34; , &amp;#34;monaco&amp;#34; , &amp;#34;courier new&amp;#34; , monospace ; font-size: 16px ; background-color: rgb(30 , 30 , 30)&quot;&gt;GImage extends GObject&lt;/span&gt;" style="swimlane;fontStyle=0;align=center;verticalAlign=top;childLayout=stackLayout;horizontal=1;startSize=55;horizontalStack=0;resizeParent=1;resizeParentMax=0;resizeLast=0;collapsible=0;marginBottom=0;html=1;rounded=0;sketch=0;" parent="1" vertex="1">
                    <mxGeometry x="-1780" y="1090" width="440" height="230" as="geometry"/>
                </mxCell>
                <mxCell id="100" value="attributes" style="text;html=1;strokeColor=none;fillColor=none;align=center;verticalAlign=middle;spacingLeft=4;spacingRight=4;overflow=hidden;rotatable=0;points=[[0,0.5],[1,0.5]];portConstraint=eastwest;" parent="99" vertex="1">
                    <mxGeometry y="55" width="440" height="20" as="geometry"/>
                </mxCell>
                <mxCell id="101" value="&lt;span style=&quot;font-size: 15px&quot;&gt;displayObject:UIImage;&lt;br&gt;&lt;/span&gt;" style="text;html=1;strokeColor=none;fillColor=none;align=left;verticalAlign=middle;spacingLeft=4;spacingRight=4;overflow=hidden;rotatable=0;points=[[0,0.5],[1,0.5]];portConstraint=eastwest;" parent="99" vertex="1">
                    <mxGeometry y="75" width="440" height="45" as="geometry"/>
                </mxCell>
                <mxCell id="104" value="" style="line;strokeWidth=1;fillColor=none;align=left;verticalAlign=middle;spacingTop=-1;spacingLeft=3;spacingRight=3;rotatable=0;labelPosition=right;points=[];portConstraint=eastwest;" parent="99" vertex="1">
                    <mxGeometry y="120" width="440" height="8" as="geometry"/>
                </mxCell>
                <mxCell id="105" value="operations" style="text;html=1;strokeColor=none;fillColor=none;align=center;verticalAlign=middle;spacingLeft=4;spacingRight=4;overflow=hidden;rotatable=0;points=[[0,0.5],[1,0.5]];portConstraint=eastwest;" parent="99" vertex="1">
                    <mxGeometry y="128" width="440" height="20" as="geometry"/>
                </mxCell>
                <mxCell id="106" value="&lt;span style=&quot;font-size: 15px&quot;&gt;constructor(scene:Phaser.Scene,{imgRes})&lt;br&gt;createDisplayObject()&lt;br&gt;dispose()&lt;br&gt;&lt;/span&gt;" style="text;html=1;strokeColor=none;fillColor=none;align=left;verticalAlign=middle;spacingLeft=4;spacingRight=4;overflow=hidden;rotatable=0;points=[[0,0.5],[1,0.5]];portConstraint=eastwest;" parent="99" vertex="1">
                    <mxGeometry y="148" width="440" height="82" as="geometry"/>
                </mxCell>
                <mxCell id="67" value="&lt;span style=&quot;color: rgb(78 , 201 , 176) ; font-family: &amp;#34;menlo&amp;#34; , &amp;#34;monaco&amp;#34; , &amp;#34;courier new&amp;#34; , monospace , &amp;#34;menlo&amp;#34; , &amp;#34;monaco&amp;#34; , &amp;#34;courier new&amp;#34; , monospace ; font-size: 16px ; background-color: rgb(30 , 30 , 30)&quot;&gt;GComponent extends GObject&lt;br&gt;&lt;/span&gt;" style="swimlane;fontStyle=0;align=center;verticalAlign=top;childLayout=stackLayout;horizontal=1;startSize=55;horizontalStack=0;resizeParent=1;resizeParentMax=0;resizeLast=0;collapsible=0;marginBottom=0;html=1;rounded=0;sketch=0;" parent="1" vertex="1">
                    <mxGeometry x="-1640" y="-80" width="770" height="540" as="geometry"/>
                </mxCell>
                <mxCell id="68" value="&lt;font style=&quot;font-size: 15px&quot;&gt;attributes&lt;/font&gt;" style="text;html=1;strokeColor=none;fillColor=none;align=center;verticalAlign=middle;spacingLeft=4;spacingRight=4;overflow=hidden;rotatable=0;points=[[0,0.5],[1,0.5]];portConstraint=eastwest;" parent="67" vertex="1">
                    <mxGeometry y="55" width="770" height="20" as="geometry"/>
                </mxCell>
                <mxCell id="69" value="&lt;font style=&quot;font-size: 15px&quot;&gt;childern:GObject[],&lt;br&gt;container:Phaser.GameObject.Container,&lt;br&gt;scrollPane:scrollPane&lt;br&gt;&lt;/font&gt;" style="text;html=1;strokeColor=none;fillColor=none;align=left;verticalAlign=middle;spacingLeft=4;spacingRight=4;overflow=hidden;rotatable=0;points=[[0,0.5],[1,0.5]];portConstraint=eastwest;" parent="67" vertex="1">
                    <mxGeometry y="75" width="770" height="105" as="geometry"/>
                </mxCell>
                <mxCell id="72" value="" style="line;strokeWidth=1;fillColor=none;align=left;verticalAlign=middle;spacingTop=-1;spacingLeft=3;spacingRight=3;rotatable=0;labelPosition=right;points=[];portConstraint=eastwest;" parent="67" vertex="1">
                    <mxGeometry y="180" width="770" height="8" as="geometry"/>
                </mxCell>
                <mxCell id="73" value="&lt;font style=&quot;font-size: 15px&quot;&gt;operations&lt;/font&gt;" style="text;html=1;strokeColor=none;fillColor=none;align=center;verticalAlign=middle;spacingLeft=4;spacingRight=4;overflow=hidden;rotatable=0;points=[[0,0.5],[1,0.5]];portConstraint=eastwest;" parent="67" vertex="1">
                    <mxGeometry y="188" width="770" height="20" as="geometry"/>
                </mxCell>
                <mxCell id="74" value="&lt;div style=&quot;color: rgb(246 , 246 , 244) ; background-color: rgb(40 , 42 , 54) ; font-family: &amp;#34;menlo&amp;#34; , &amp;#34;monaco&amp;#34; , &amp;#34;courier new&amp;#34; , monospace ; line-height: 18px&quot;&gt;&lt;/div&gt;&lt;font style=&quot;font-size: 15px&quot;&gt;createDisplayObject();&lt;br&gt;createScrollPane(layout:Margin,scroll:ScrollType,scrollVisibleType:ScrollBarDisplayType,vScrollRes:string,hScrollRes:string,headerRes:string,footerRes:string);&lt;br&gt;addChild(child:GObject);&lt;br&gt;addChildAt(child:GObject,index:number=0);&lt;br&gt;removeChild(child:GObject,dispose:boolean=false);&lt;br&gt;removeChildAt(index:number,dispose:boolean=false);&lt;br&gt;removeChildren(begingIndex:number=0,endINdex:number=-1,dispose:boolean = false);&lt;br&gt;getChildById(id:string):GObject;&lt;br&gt;getChildIndex(child:GObject):GObject&lt;br&gt;setChildINdex(child:GObject,index:number=0);&lt;br&gt;swapChildren(child1:GObject,child2:GObject);&lt;br&gt;getChildAt(index:number=0);&lt;br&gt;get numChildren():number;&lt;br&gt;setMask(&lt;span class=&quot;mtk1&quot; style=&quot;color: rgb(246 , 246 , 244) ; font-family: &amp;#34;menlo&amp;#34; , &amp;#34;monaco&amp;#34; , &amp;#34;courier new&amp;#34; , monospace&quot;&gt;mask: Phaser.Display.Masks.&lt;/span&gt;&lt;span class=&quot;mtk1&quot; style=&quot;color: rgb(246 , 246 , 244) ; font-family: &amp;#34;menlo&amp;#34; , &amp;#34;monaco&amp;#34; , &amp;#34;courier new&amp;#34; , monospace&quot;&gt;GeometryMask&lt;/span&gt;&lt;span class=&quot;mtk1&quot; style=&quot;color: rgb(246 , 246 , 244) ; font-family: &amp;#34;menlo&amp;#34; , &amp;#34;monaco&amp;#34; , &amp;#34;courier new&amp;#34; , monospace&quot;&gt; &lt;/span&gt;&lt;span class=&quot;mtk10&quot; style=&quot;color: rgb(242 , 134 , 196) ; font-family: &amp;#34;menlo&amp;#34; , &amp;#34;monaco&amp;#34; , &amp;#34;courier new&amp;#34; , monospace&quot;&gt;|&lt;/span&gt;&lt;span class=&quot;mtk1&quot; style=&quot;color: rgb(246 , 246 , 244) ; font-family: &amp;#34;menlo&amp;#34; , &amp;#34;monaco&amp;#34; , &amp;#34;courier new&amp;#34; , monospace&quot;&gt; Phaser.Display.Masks.BitmapMask&lt;/span&gt;);&lt;br&gt;setScrollBounds(x:number,y:number,width:number,height:number);&lt;br&gt;dispose();&lt;br&gt;// ====xml解析方法&lt;br&gt;&lt;/font&gt;&lt;div style=&quot;font-family: &amp;#34;menlo&amp;#34; , &amp;#34;monaco&amp;#34; , &amp;#34;courier new&amp;#34; , monospace ; line-height: 18px ; font-size: 15px&quot;&gt;&lt;font color=&quot;#ffffff&quot; style=&quot;font-size: 15px&quot;&gt;constructFromXML(xml:XmlNode)&lt;/font&gt;&lt;/div&gt;" style="text;html=1;strokeColor=none;fillColor=none;align=left;verticalAlign=middle;spacingLeft=4;spacingRight=4;overflow=hidden;rotatable=0;points=[[0,0.5],[1,0.5]];portConstraint=eastwest;" parent="67" vertex="1">
                    <mxGeometry y="208" width="770" height="332" as="geometry"/>
                </mxCell>
                <mxCell id="107" value="&lt;br style=&quot;color: rgb(78 , 201 , 176) ; font-family: &amp;#34;menlo&amp;#34; , &amp;#34;monaco&amp;#34; , &amp;#34;courier new&amp;#34; , monospace , &amp;#34;menlo&amp;#34; , &amp;#34;monaco&amp;#34; , &amp;#34;courier new&amp;#34; , monospace ; font-size: 16px&quot;&gt;&lt;span style=&quot;color: rgb(78 , 201 , 176) ; font-family: &amp;#34;menlo&amp;#34; , &amp;#34;monaco&amp;#34; , &amp;#34;courier new&amp;#34; , monospace , &amp;#34;menlo&amp;#34; , &amp;#34;monaco&amp;#34; , &amp;#34;courier new&amp;#34; , monospace ; font-size: 16px ; background-color: rgb(30 , 30 , 30)&quot;&gt;UIImage extends Phaser.GameObjects.Sprite&lt;/span&gt;" style="swimlane;fontStyle=0;align=center;verticalAlign=top;childLayout=stackLayout;horizontal=1;startSize=55;horizontalStack=0;resizeParent=1;resizeParentMax=0;resizeLast=0;collapsible=0;marginBottom=0;html=1;rounded=0;sketch=0;" parent="1" vertex="1">
                    <mxGeometry x="-1780" y="1320" width="440" height="180" as="geometry"/>
                </mxCell>
                <mxCell id="108" value="attributes" style="text;html=1;strokeColor=none;fillColor=none;align=center;verticalAlign=middle;spacingLeft=4;spacingRight=4;overflow=hidden;rotatable=0;points=[[0,0.5],[1,0.5]];portConstraint=eastwest;" parent="107" vertex="1">
                    <mxGeometry y="55" width="440" height="20" as="geometry"/>
                </mxCell>
                <mxCell id="109" value="&lt;font style=&quot;font-size: 15px&quot;&gt;uiOwner:GObject&lt;/font&gt;" style="text;html=1;strokeColor=none;fillColor=none;align=left;verticalAlign=middle;spacingLeft=4;spacingRight=4;overflow=hidden;rotatable=0;points=[[0,0.5],[1,0.5]];portConstraint=eastwest;" parent="107" vertex="1">
                    <mxGeometry y="75" width="440" height="35" as="geometry"/>
                </mxCell>
                <mxCell id="112" value="" style="line;strokeWidth=1;fillColor=none;align=left;verticalAlign=middle;spacingTop=-1;spacingLeft=3;spacingRight=3;rotatable=0;labelPosition=right;points=[];portConstraint=eastwest;" parent="107" vertex="1">
                    <mxGeometry y="110" width="440" height="8" as="geometry"/>
                </mxCell>
                <mxCell id="113" value="operations" style="text;html=1;strokeColor=none;fillColor=none;align=center;verticalAlign=middle;spacingLeft=4;spacingRight=4;overflow=hidden;rotatable=0;points=[[0,0.5],[1,0.5]];portConstraint=eastwest;" parent="107" vertex="1">
                    <mxGeometry y="118" width="440" height="20" as="geometry"/>
                </mxCell>
                <mxCell id="114" value="&lt;font style=&quot;font-size: 15px&quot;&gt;constructor(scene:Phaser.Scene,{res:string},owner?:Gojbect)&lt;br&gt;&lt;/font&gt;" style="text;html=1;strokeColor=none;fillColor=none;align=left;verticalAlign=middle;spacingLeft=4;spacingRight=4;overflow=hidden;rotatable=0;points=[[0,0.5],[1,0.5]];portConstraint=eastwest;" parent="107" vertex="1">
                    <mxGeometry y="138" width="440" height="42" as="geometry"/>
                </mxCell>
                <mxCell id="115" value="&lt;br style=&quot;color: rgb(78 , 201 , 176) ; font-family: &amp;#34;menlo&amp;#34; , &amp;#34;monaco&amp;#34; , &amp;#34;courier new&amp;#34; , monospace , &amp;#34;menlo&amp;#34; , &amp;#34;monaco&amp;#34; , &amp;#34;courier new&amp;#34; , monospace ; font-size: 16px&quot;&gt;&lt;span style=&quot;color: rgb(78 , 201 , 176) ; font-family: &amp;#34;menlo&amp;#34; , &amp;#34;monaco&amp;#34; , &amp;#34;courier new&amp;#34; , monospace , &amp;#34;menlo&amp;#34; , &amp;#34;monaco&amp;#34; , &amp;#34;courier new&amp;#34; , monospace ; font-size: 16px ; background-color: rgb(30 , 30 , 30)&quot;&gt;GProgressBar extends GComponent&lt;/span&gt;" style="swimlane;fontStyle=0;align=center;verticalAlign=top;childLayout=stackLayout;horizontal=1;startSize=55;horizontalStack=0;resizeParent=1;resizeParentMax=0;resizeLast=0;collapsible=0;marginBottom=0;html=1;rounded=0;sketch=0;" parent="1" vertex="1">
                    <mxGeometry x="-2410" y="1550" width="610" height="320" as="geometry"/>
                </mxCell>
                <mxCell id="116" value="attributes" style="text;html=1;strokeColor=none;fillColor=none;align=center;verticalAlign=middle;spacingLeft=4;spacingRight=4;overflow=hidden;rotatable=0;points=[[0,0.5],[1,0.5]];portConstraint=eastwest;" parent="115" vertex="1">
                    <mxGeometry y="55" width="610" height="20" as="geometry"/>
                </mxCell>
                <mxCell id="117" value="&lt;font style=&quot;font-size: 15px&quot;&gt;text:Phaser.Text&lt;br&gt;// 进度条上的特效&lt;br&gt;ani:GObject,&lt;br&gt;bar:GObject,&lt;br&gt;backGround:GObject&lt;br&gt;isVertical:boolean;&lt;/font&gt;&lt;font&gt;&lt;br&gt;&lt;br&gt;&lt;/font&gt;" style="text;html=1;strokeColor=none;fillColor=none;align=left;verticalAlign=middle;spacingLeft=4;spacingRight=4;overflow=hidden;rotatable=0;points=[[0,0.5],[1,0.5]];portConstraint=eastwest;" parent="115" vertex="1">
                    <mxGeometry y="75" width="610" height="105" as="geometry"/>
                </mxCell>
                <mxCell id="120" value="" style="line;strokeWidth=1;fillColor=none;align=left;verticalAlign=middle;spacingTop=-1;spacingLeft=3;spacingRight=3;rotatable=0;labelPosition=right;points=[];portConstraint=eastwest;" parent="115" vertex="1">
                    <mxGeometry y="180" width="610" height="8" as="geometry"/>
                </mxCell>
                <mxCell id="121" value="operations" style="text;html=1;strokeColor=none;fillColor=none;align=center;verticalAlign=middle;spacingLeft=4;spacingRight=4;overflow=hidden;rotatable=0;points=[[0,0.5],[1,0.5]];portConstraint=eastwest;" parent="115" vertex="1">
                    <mxGeometry y="188" width="610" height="20" as="geometry"/>
                </mxCell>
                <mxCell id="122" value="&lt;span style=&quot;font-size: 15px&quot;&gt;constructor(scene:Phaser.Scene,{&lt;/span&gt;&lt;span style=&quot;font-size: 15px&quot;&gt;barRes,textRes,backGroundRes&lt;/span&gt;&lt;span style=&quot;font-size: 15px&quot;&gt;});&lt;br&gt;setMax(val:number);&lt;br&gt;setValue(val:number);&lt;br&gt;tweenValue(val:number,duration:number);&lt;br&gt;constructFromXml(xml:XmlNode);&lt;br&gt;&lt;/span&gt;" style="text;html=1;strokeColor=none;fillColor=none;align=left;verticalAlign=middle;spacingLeft=4;spacingRight=4;overflow=hidden;rotatable=0;points=[[0,0.5],[1,0.5]];portConstraint=eastwest;" parent="115" vertex="1">
                    <mxGeometry y="208" width="610" height="112" as="geometry"/>
                </mxCell>
                <mxCell id="123" value="&lt;br style=&quot;color: rgb(78 , 201 , 176) ; font-family: &amp;#34;menlo&amp;#34; , &amp;#34;monaco&amp;#34; , &amp;#34;courier new&amp;#34; , monospace , &amp;#34;menlo&amp;#34; , &amp;#34;monaco&amp;#34; , &amp;#34;courier new&amp;#34; , monospace ; font-size: 16px&quot;&gt;&lt;span style=&quot;color: rgb(78 , 201 , 176) ; font-family: &amp;#34;menlo&amp;#34; , &amp;#34;monaco&amp;#34; , &amp;#34;courier new&amp;#34; , monospace , &amp;#34;menlo&amp;#34; , &amp;#34;monaco&amp;#34; , &amp;#34;courier new&amp;#34; , monospace ; font-size: 16px ; background-color: rgb(30 , 30 , 30)&quot;&gt;GComboBox extends GComponent&lt;/span&gt;" style="swimlane;fontStyle=0;align=center;verticalAlign=top;childLayout=stackLayout;horizontal=1;startSize=55;horizontalStack=0;resizeParent=1;resizeParentMax=0;resizeLast=0;collapsible=0;marginBottom=0;html=1;rounded=0;sketch=0;" parent="1" vertex="1">
                    <mxGeometry x="-1800" y="1550" width="770" height="470" as="geometry"/>
                </mxCell>
                <mxCell id="124" value="attributes" style="text;html=1;strokeColor=none;fillColor=none;align=center;verticalAlign=middle;spacingLeft=4;spacingRight=4;overflow=hidden;rotatable=0;points=[[0,0.5],[1,0.5]];portConstraint=eastwest;" parent="123" vertex="1">
                    <mxGeometry y="55" width="770" height="20" as="geometry"/>
                </mxCell>
                <mxCell id="125" value="&lt;font style=&quot;font-size: 15px&quot;&gt;dropBtn:GButton&lt;br&gt;text:Phaser.Text&lt;br&gt;icon:GObject&lt;br&gt;// 下拉菜单列表&lt;br&gt;list:Glist&lt;br&gt;selectedIndex:number=0&lt;br&gt;// 下拉菜单显示item数量&lt;br&gt;visibleItemCount:number=0&lt;br&gt;// 菜单展开方向&lt;br&gt;popUpDir:number&lt;br&gt;&lt;/font&gt;" style="text;html=1;strokeColor=none;fillColor=none;align=left;verticalAlign=middle;spacingLeft=4;spacingRight=4;overflow=hidden;rotatable=0;points=[[0,0.5],[1,0.5]];portConstraint=eastwest;" parent="123" vertex="1">
                    <mxGeometry y="75" width="770" height="245" as="geometry"/>
                </mxCell>
                <mxCell id="128" value="" style="line;strokeWidth=1;fillColor=none;align=left;verticalAlign=middle;spacingTop=-1;spacingLeft=3;spacingRight=3;rotatable=0;labelPosition=right;points=[];portConstraint=eastwest;" parent="123" vertex="1">
                    <mxGeometry y="320" width="770" height="8" as="geometry"/>
                </mxCell>
                <mxCell id="129" value="operations" style="text;html=1;strokeColor=none;fillColor=none;align=center;verticalAlign=middle;spacingLeft=4;spacingRight=4;overflow=hidden;rotatable=0;points=[[0,0.5],[1,0.5]];portConstraint=eastwest;" parent="123" vertex="1">
                    <mxGeometry y="328" width="770" height="20" as="geometry"/>
                </mxCell>
                <mxCell id="130" value="&lt;font style=&quot;font-size: 15px&quot;&gt;constructor(scene:Phaser.Scene,{bgRes,textRes,btnRes,iconResitemRes},dir:number,visibleCount:number)&lt;br&gt;setItems(data:any[ ])&lt;br&gt;set text(value:string)&lt;br&gt;setSelectIndex(index:number);&lt;br&gt;dropBtn.on(&quot;pointer.down&quot;);&lt;br&gt;dispose()&lt;br&gt;&lt;/font&gt;" style="text;html=1;strokeColor=none;fillColor=none;align=left;verticalAlign=middle;spacingLeft=4;spacingRight=4;overflow=hidden;rotatable=0;points=[[0,0.5],[1,0.5]];portConstraint=eastwest;" parent="123" vertex="1">
                    <mxGeometry y="348" width="770" height="122" as="geometry"/>
                </mxCell>
                <mxCell id="133" value="&lt;span style=&quot;color: rgb(78 , 201 , 176) ; font-family: &amp;#34;menlo&amp;#34; , &amp;#34;monaco&amp;#34; , &amp;#34;courier new&amp;#34; , monospace , &amp;#34;menlo&amp;#34; , &amp;#34;monaco&amp;#34; , &amp;#34;courier new&amp;#34; , monospace ; font-size: 16px ; font-weight: 400 ; background-color: rgb(30 , 30 , 30)&quot;&gt;GObject&lt;/span&gt;" style="swimlane;fontStyle=1;align=center;verticalAlign=top;childLayout=stackLayout;horizontal=1;startSize=30;horizontalStack=0;resizeParent=1;resizeParentMax=0;resizeLast=0;collapsible=0;marginBottom=0;html=1;rounded=0;sketch=0;" parent="1" vertex="1">
                    <mxGeometry x="-70" y="-1330" width="260" height="140" as="geometry"/>
                </mxCell>
                <mxCell id="135" value="" style="swimlane;fontStyle=1;align=center;verticalAlign=top;horizontal=1;startSize=0;collapsible=0;marginBottom=0;html=1;strokeColor=none;fillColor=none;" parent="133" vertex="1">
                    <mxGeometry y="30" width="260" height="110" as="geometry"/>
                </mxCell>
                <mxCell id="137" value="displayObject,id,x,y,width,dpr,sound,group..." style="html=1;align=center;verticalAlign=middle;rotatable=0;" parent="135" vertex="1">
                    <mxGeometry width="250" height="30" relative="1" as="geometry">
                        <mxPoint x="5" y="20" as="offset"/>
                    </mxGeometry>
                </mxCell>
                <mxCell id="151" value="setX,Y,Rotation,createFromXml..." style="html=1;align=center;verticalAlign=middle;rotatable=0;" parent="135" vertex="1">
                    <mxGeometry x="5.5" y="50" width="250" height="30" as="geometry"/>
                </mxCell>
                <mxCell id="152" value="&lt;font color=&quot;#4ec9b0&quot; face=&quot;menlo, monaco, courier new, monospace, menlo, monaco, courier new, monospace&quot;&gt;&lt;span style=&quot;font-size: 16px ; font-weight: 400 ; background-color: rgb(30 , 30 , 30)&quot;&gt;GComponent&lt;/span&gt;&lt;/font&gt;" style="swimlane;fontStyle=1;align=center;verticalAlign=top;childLayout=stackLayout;horizontal=1;startSize=30;horizontalStack=0;resizeParent=1;resizeParentMax=0;resizeLast=0;collapsible=0;marginBottom=0;html=1;rounded=0;sketch=0;" parent="1" vertex="1">
                    <mxGeometry x="-70" y="-1080" width="260" height="140" as="geometry"/>
                </mxCell>
                <mxCell id="153" value="" style="swimlane;fontStyle=1;align=center;verticalAlign=top;horizontal=1;startSize=0;collapsible=0;marginBottom=0;html=1;strokeColor=none;fillColor=none;" parent="152" vertex="1">
                    <mxGeometry y="30" width="260" height="110" as="geometry"/>
                </mxCell>
                <mxCell id="154" value="container,childrens(Gobject),scrollPane.." style="html=1;align=center;verticalAlign=middle;rotatable=0;" parent="153" vertex="1">
                    <mxGeometry width="250" height="30" relative="1" as="geometry">
                        <mxPoint x="5" y="20" as="offset"/>
                    </mxGeometry>
                </mxCell>
                <mxCell id="155" value="add,remove,setIndex,swap.." style="html=1;align=center;verticalAlign=middle;rotatable=0;" parent="153" vertex="1">
                    <mxGeometry x="5.5" y="50" width="250" height="30" as="geometry"/>
                </mxCell>
                <mxCell id="156" value="&lt;font color=&quot;#4ec9b0&quot; face=&quot;menlo, monaco, courier new, monospace, menlo, monaco, courier new, monospace&quot;&gt;&lt;span style=&quot;font-size: 16px ; font-weight: 400 ; background-color: rgb(30 , 30 , 30)&quot;&gt;ScrollPane&lt;/span&gt;&lt;/font&gt;" style="swimlane;fontStyle=1;align=center;verticalAlign=top;childLayout=stackLayout;horizontal=1;startSize=30;horizontalStack=0;resizeParent=1;resizeParentMax=0;resizeLast=0;collapsible=0;marginBottom=0;html=1;rounded=0;sketch=0;" parent="1" vertex="1">
                    <mxGeometry x="-70" y="-920" width="260" height="140" as="geometry"/>
                </mxCell>
                <mxCell id="157" value="" style="swimlane;fontStyle=1;align=center;verticalAlign=top;horizontal=1;startSize=0;collapsible=0;marginBottom=0;html=1;strokeColor=none;fillColor=none;" parent="156" vertex="1">
                    <mxGeometry y="30" width="260" height="110" as="geometry"/>
                </mxCell>
                <mxCell id="158" value="owner,scrollBar,scrollType..." style="html=1;align=center;verticalAlign=middle;rotatable=0;" parent="157" vertex="1">
                    <mxGeometry width="250" height="30" relative="1" as="geometry">
                        <mxPoint x="5" y="20" as="offset"/>
                    </mxGeometry>
                </mxCell>
                <mxCell id="159" value="scrollTop,scrollDown.." style="html=1;align=center;verticalAlign=middle;rotatable=0;" parent="157" vertex="1">
                    <mxGeometry x="5.5" y="50" width="250" height="30" as="geometry"/>
                </mxCell>
                <mxCell id="162" value="&lt;font color=&quot;#4ec9b0&quot; face=&quot;menlo, monaco, courier new, monospace, menlo, monaco, courier new, monospace&quot;&gt;&lt;span style=&quot;font-size: 16px ; font-weight: 400 ; background-color: rgb(30 , 30 , 30)&quot;&gt;GScrollBar&lt;/span&gt;&lt;/font&gt;" style="swimlane;fontStyle=1;align=center;verticalAlign=top;childLayout=stackLayout;horizontal=1;startSize=30;horizontalStack=0;resizeParent=1;resizeParentMax=0;resizeLast=0;collapsible=0;marginBottom=0;html=1;rounded=0;sketch=0;" parent="1" vertex="1">
                    <mxGeometry x="270" y="-980" width="310" height="100" as="geometry"/>
                </mxCell>
                <mxCell id="163" value="" style="swimlane;fontStyle=1;align=center;verticalAlign=top;horizontal=1;startSize=0;collapsible=0;marginBottom=0;html=1;strokeColor=none;fillColor=none;" parent="162" vertex="1">
                    <mxGeometry y="30" width="310" height="70" as="geometry"/>
                </mxCell>
                <mxCell id="164" value="owner,isvertical,&lt;br&gt;bar,track,upBtn,downBtn" style="html=1;align=center;verticalAlign=middle;rotatable=0;" parent="163" vertex="1">
                    <mxGeometry width="300" height="30" relative="1" as="geometry">
                        <mxPoint x="5" y="20" as="offset"/>
                    </mxGeometry>
                </mxCell>
                <mxCell id="178" value="" style="html=1;verticalAlign=bottom;labelBackgroundColor=none;endArrow=block;endFill=1;entryX=0;entryY=0.25;entryDx=0;entryDy=0;exitX=0;exitY=0.25;exitDx=0;exitDy=0;edgeStyle=orthogonalEdgeStyle;rounded=0;" parent="162" source="163" target="163" edge="1">
                    <mxGeometry width="160" relative="1" as="geometry">
                        <mxPoint x="-210" y="-40" as="sourcePoint"/>
                        <mxPoint x="-50" y="-40" as="targetPoint"/>
                    </mxGeometry>
                </mxCell>
                <mxCell id="167" value="&lt;font color=&quot;#4ec9b0&quot; face=&quot;menlo, monaco, courier new, monospace, menlo, monaco, courier new, monospace&quot;&gt;&lt;span style=&quot;font-size: 16px ; font-weight: 400 ; background-color: rgb(30 , 30 , 30)&quot;&gt;GButton&lt;/span&gt;&lt;/font&gt;" style="swimlane;fontStyle=1;align=center;verticalAlign=top;childLayout=stackLayout;horizontal=1;startSize=30;horizontalStack=0;resizeParent=1;resizeParentMax=0;resizeLast=0;collapsible=0;marginBottom=0;html=1;rounded=0;sketch=0;" parent="1" vertex="1">
                    <mxGeometry x="270" y="-1110" width="310" height="100" as="geometry"/>
                </mxCell>
                <mxCell id="168" value="" style="swimlane;fontStyle=1;align=center;verticalAlign=top;horizontal=1;startSize=0;collapsible=0;marginBottom=0;html=1;strokeColor=none;fillColor=none;" parent="167" vertex="1">
                    <mxGeometry y="30" width="310" height="70" as="geometry"/>
                </mxCell>
                <mxCell id="169" value="frames,icon,glabel,btnState" style="html=1;align=center;verticalAlign=middle;rotatable=0;" parent="168" vertex="1">
                    <mxGeometry width="300" height="30" relative="1" as="geometry">
                        <mxPoint x="5" y="20" as="offset"/>
                    </mxGeometry>
                </mxCell>
                <mxCell id="171" value="&lt;font color=&quot;#4ec9b0&quot; face=&quot;menlo, monaco, courier new, monospace, menlo, monaco, courier new, monospace&quot;&gt;&lt;span style=&quot;font-size: 16px ; font-weight: 400 ; background-color: rgb(30 , 30 , 30)&quot;&gt;GImage&lt;/span&gt;&lt;/font&gt;" style="swimlane;fontStyle=1;align=center;verticalAlign=top;childLayout=stackLayout;horizontal=1;startSize=30;horizontalStack=0;resizeParent=1;resizeParentMax=0;resizeLast=0;collapsible=0;marginBottom=0;html=1;rounded=0;sketch=0;" parent="1" vertex="1">
                    <mxGeometry x="-498" y="-1450" width="260" height="100" as="geometry"/>
                </mxCell>
                <mxCell id="172" value="" style="swimlane;fontStyle=1;align=center;verticalAlign=top;horizontal=1;startSize=0;collapsible=0;marginBottom=0;html=1;strokeColor=none;fillColor=none;" parent="171" vertex="1">
                    <mxGeometry y="30" width="260" height="70" as="geometry"/>
                </mxCell>
                <mxCell id="173" value="display:UIImage" style="html=1;align=center;verticalAlign=middle;rotatable=0;" parent="172" vertex="1">
                    <mxGeometry width="250" height="30" relative="1" as="geometry">
                        <mxPoint x="5" y="20" as="offset"/>
                    </mxGeometry>
                </mxCell>
                <mxCell id="174" value="&lt;font color=&quot;#4ec9b0&quot; face=&quot;menlo, monaco, courier new, monospace, menlo, monaco, courier new, monospace&quot;&gt;&lt;span style=&quot;font-size: 16px ; font-weight: 400 ; background-color: rgb(30 , 30 , 30)&quot;&gt;UIImage&lt;/span&gt;&lt;/font&gt;" style="swimlane;fontStyle=1;align=center;verticalAlign=top;childLayout=stackLayout;horizontal=1;startSize=30;horizontalStack=0;resizeParent=1;resizeParentMax=0;resizeLast=0;collapsible=0;marginBottom=0;html=1;rounded=0;sketch=0;" parent="1" vertex="1">
                    <mxGeometry x="-880" y="-1450" width="360" height="100" as="geometry"/>
                </mxCell>
                <mxCell id="175" value="" style="swimlane;fontStyle=1;align=center;verticalAlign=top;horizontal=1;startSize=0;collapsible=0;marginBottom=0;html=1;strokeColor=none;fillColor=none;" parent="174" vertex="1">
                    <mxGeometry y="30" width="360" height="70" as="geometry"/>
                </mxCell>
                <mxCell id="176" value="owner,displayObject:phaser.image..." style="html=1;align=center;verticalAlign=middle;rotatable=0;" parent="175" vertex="1">
                    <mxGeometry width="350" height="30" relative="1" as="geometry">
                        <mxPoint x="5" y="20" as="offset"/>
                    </mxGeometry>
                </mxCell>
                <mxCell id="179" value="" style="ellipse;html=1;fillColor=#000000;rounded=0;sketch=0;" parent="1" vertex="1">
                    <mxGeometry x="60" y="-1020" width="4" height="4" as="geometry"/>
                </mxCell>
                <mxCell id="182" value="&lt;font color=&quot;#4ec9b0&quot; face=&quot;menlo, monaco, courier new, monospace, menlo, monaco, courier new, monospace&quot;&gt;&lt;span style=&quot;font-size: 16px ; font-weight: 400 ; background-color: rgb(30 , 30 , 30)&quot;&gt;GProgressBar&lt;/span&gt;&lt;/font&gt;" style="swimlane;fontStyle=1;align=center;verticalAlign=top;childLayout=stackLayout;horizontal=1;startSize=30;horizontalStack=0;resizeParent=1;resizeParentMax=0;resizeLast=0;collapsible=0;marginBottom=0;html=1;rounded=0;sketch=0;" parent="1" vertex="1">
                    <mxGeometry x="270" y="-850" width="310" height="100" as="geometry"/>
                </mxCell>
                <mxCell id="183" value="" style="swimlane;fontStyle=1;align=center;verticalAlign=top;horizontal=1;startSize=0;collapsible=0;marginBottom=0;html=1;strokeColor=none;fillColor=none;" parent="182" vertex="1">
                    <mxGeometry y="30" width="310" height="70" as="geometry"/>
                </mxCell>
                <mxCell id="184" value="bar,bg,glabel,ani,maxVal,curVal..." style="html=1;align=center;verticalAlign=middle;rotatable=0;" parent="183" vertex="1">
                    <mxGeometry width="300" height="30" relative="1" as="geometry">
                        <mxPoint x="5" y="20" as="offset"/>
                    </mxGeometry>
                </mxCell>
                <mxCell id="186" value="&lt;font color=&quot;#4ec9b0&quot; face=&quot;menlo, monaco, courier new, monospace, menlo, monaco, courier new, monospace&quot;&gt;&lt;span style=&quot;font-size: 16px ; font-weight: 400 ; background-color: rgb(30 , 30 , 30)&quot;&gt;GCombox&lt;br&gt;&lt;br&gt;&lt;/span&gt;&lt;/font&gt;" style="swimlane;fontStyle=1;align=center;verticalAlign=top;childLayout=stackLayout;horizontal=1;startSize=30;horizontalStack=0;resizeParent=1;resizeParentMax=0;resizeLast=0;collapsible=0;marginBottom=0;html=1;rounded=0;sketch=0;" parent="1" vertex="1">
                    <mxGeometry x="270" y="-728" width="310" height="100" as="geometry"/>
                </mxCell>
                <mxCell id="187" value="" style="swimlane;fontStyle=1;align=center;verticalAlign=top;horizontal=1;startSize=0;collapsible=0;marginBottom=0;html=1;strokeColor=none;fillColor=none;" parent="186" vertex="1">
                    <mxGeometry y="30" width="310" height="70" as="geometry"/>
                </mxCell>
                <mxCell id="188" value="btn,list,bg,icon,direction" style="html=1;align=center;verticalAlign=middle;rotatable=0;" parent="187" vertex="1">
                    <mxGeometry width="300" height="30" relative="1" as="geometry">
                        <mxPoint x="5" y="20" as="offset"/>
                    </mxGeometry>
                </mxCell>
                <mxCell id="190" value="&lt;font color=&quot;#4ec9b0&quot; face=&quot;menlo, monaco, courier new, monospace, menlo, monaco, courier new, monospace&quot;&gt;&lt;span style=&quot;font-size: 16px ; font-weight: 400 ; background-color: rgb(30 , 30 , 30)&quot;&gt;GLabel&lt;br&gt;&lt;/span&gt;&lt;/font&gt;" style="swimlane;fontStyle=1;align=center;verticalAlign=top;childLayout=stackLayout;horizontal=1;startSize=30;horizontalStack=0;resizeParent=1;resizeParentMax=0;resizeLast=0;collapsible=0;marginBottom=0;html=1;rounded=0;sketch=0;" parent="1" vertex="1">
                    <mxGeometry x="270" y="-601" width="310" height="100" as="geometry"/>
                </mxCell>
                <mxCell id="191" value="" style="swimlane;fontStyle=1;align=center;verticalAlign=top;horizontal=1;startSize=0;collapsible=0;marginBottom=0;html=1;strokeColor=none;fillColor=none;" parent="190" vertex="1">
                    <mxGeometry y="30" width="310" height="70" as="geometry"/>
                </mxCell>
                <mxCell id="192" value="icon,text" style="html=1;align=center;verticalAlign=middle;rotatable=0;" parent="191" vertex="1">
                    <mxGeometry width="300" height="30" relative="1" as="geometry">
                        <mxPoint x="5" y="20" as="offset"/>
                    </mxGeometry>
                </mxCell>
                <mxCell id="194" value="&lt;font color=&quot;#4ec9b0&quot; face=&quot;menlo, monaco, courier new, monospace, menlo, monaco, courier new, monospace&quot;&gt;&lt;span style=&quot;font-size: 16px ; font-weight: 400 ; background-color: rgb(30 , 30 , 30)&quot;&gt;GList&lt;br&gt;&lt;/span&gt;&lt;/font&gt;" style="swimlane;fontStyle=1;align=center;verticalAlign=top;childLayout=stackLayout;horizontal=1;startSize=30;horizontalStack=0;resizeParent=1;resizeParentMax=0;resizeLast=0;collapsible=0;marginBottom=0;html=1;rounded=0;sketch=0;" parent="1" vertex="1">
                    <mxGeometry x="270" y="-470" width="310" height="140" as="geometry"/>
                </mxCell>
                <mxCell id="195" value="" style="swimlane;fontStyle=1;align=center;verticalAlign=top;horizontal=1;startSize=0;collapsible=0;marginBottom=0;html=1;strokeColor=none;fillColor=none;" parent="194" vertex="1">
                    <mxGeometry y="30" width="310" height="110" as="geometry"/>
                </mxCell>
                <mxCell id="196" value="layout,isvertical,item.." style="html=1;align=center;verticalAlign=middle;rotatable=0;" parent="195" vertex="1">
                    <mxGeometry width="300" height="30" relative="1" as="geometry">
                        <mxPoint x="5" y="20" as="offset"/>
                    </mxGeometry>
                </mxCell>
                <mxCell id="197" value="add,remove,setData(data:any[]),childStateChanged()..." style="html=1;align=center;verticalAlign=middle;rotatable=0;" parent="195" vertex="1">
                    <mxGeometry x="5" y="60" width="300" height="30" as="geometry"/>
                </mxCell>
                <mxCell id="199" value="&lt;font color=&quot;#4ec9b0&quot; face=&quot;menlo, monaco, courier new, monospace, menlo, monaco, courier new, monospace&quot;&gt;&lt;span style=&quot;font-size: 16px ; font-weight: 400 ; background-color: rgb(30 , 30 , 30)&quot;&gt;GSlider&lt;br&gt;&lt;/span&gt;&lt;/font&gt;" style="swimlane;fontStyle=1;align=center;verticalAlign=top;childLayout=stackLayout;horizontal=1;startSize=30;horizontalStack=0;resizeParent=1;resizeParentMax=0;resizeLast=0;collapsible=0;marginBottom=0;html=1;rounded=0;sketch=0;" parent="1" vertex="1">
                    <mxGeometry x="270" y="-300" width="310" height="100" as="geometry"/>
                </mxCell>
                <mxCell id="200" value="" style="swimlane;fontStyle=1;align=center;verticalAlign=top;horizontal=1;startSize=0;collapsible=0;marginBottom=0;html=1;strokeColor=none;fillColor=none;" parent="199" vertex="1">
                    <mxGeometry y="30" width="310" height="70" as="geometry"/>
                </mxCell>
                <mxCell id="201" value="isvertical,bar,btn,ani,maxVal,curVal..." style="html=1;align=center;verticalAlign=middle;rotatable=0;" parent="200" vertex="1">
                    <mxGeometry width="300" height="30" relative="1" as="geometry">
                        <mxPoint x="5" y="20" as="offset"/>
                    </mxGeometry>
                </mxCell>
                <mxCell id="204" value="&lt;font color=&quot;#4ec9b0&quot; face=&quot;menlo, monaco, courier new, monospace, menlo, monaco, courier new, monospace&quot;&gt;&lt;span style=&quot;font-size: 16px ; font-weight: 400 ; background-color: rgb(30 , 30 , 30)&quot;&gt;GTextField&lt;/span&gt;&lt;/font&gt;" style="swimlane;fontStyle=1;align=center;verticalAlign=middle;childLayout=stackLayout;horizontal=1;startSize=30;horizontalStack=0;resizeParent=1;resizeParentMax=0;resizeLast=0;collapsible=0;marginBottom=0;html=1;rounded=0;sketch=0;" parent="1" vertex="1">
                    <mxGeometry x="-529.5" y="-1010" width="319" height="120" as="geometry"/>
                </mxCell>
                <mxCell id="205" value="" style="swimlane;fontStyle=1;align=center;verticalAlign=top;horizontal=1;startSize=0;collapsible=0;marginBottom=0;html=1;strokeColor=none;fillColor=none;" parent="204" vertex="1">
                    <mxGeometry y="30" width="319" height="90" as="geometry"/>
                </mxCell>
                <mxCell id="206" value="textstyle,fontSize,blod,enable" style="html=1;align=center;verticalAlign=middle;rotatable=0;" parent="205" vertex="1">
                    <mxGeometry width="310" height="30" relative="1" as="geometry">
                        <mxPoint x="5" y="12" as="offset"/>
                    </mxGeometry>
                </mxCell>
                <mxCell id="214" value="setText(string),parseText(data:any):any,..." style="html=1;align=center;verticalAlign=middle;rotatable=0;" vertex="1" parent="205">
                    <mxGeometry x="4.5" y="51" width="310" height="30" as="geometry"/>
                </mxCell>
                <mxCell id="254" style="edgeStyle=orthogonalEdgeStyle;rounded=0;orthogonalLoop=1;jettySize=auto;html=1;exitX=0.5;exitY=0;exitDx=0;exitDy=0;entryX=0.5;entryY=1;entryDx=0;entryDy=0;" edge="1" parent="1" source="208" target="205">
                    <mxGeometry relative="1" as="geometry"/>
                </mxCell>
                <mxCell id="208" value="&lt;font color=&quot;#4ec9b0&quot; face=&quot;menlo, monaco, courier new, monospace, menlo, monaco, courier new, monospace&quot;&gt;&lt;span style=&quot;font-size: 16px ; font-weight: 400 ; background-color: rgb(30 , 30 , 30)&quot;&gt;GRichTextField&lt;/span&gt;&lt;/font&gt;" style="swimlane;fontStyle=1;align=center;verticalAlign=top;childLayout=stackLayout;horizontal=1;startSize=30;horizontalStack=0;resizeParent=1;resizeParentMax=0;resizeLast=0;collapsible=0;marginBottom=0;html=1;rounded=0;sketch=0;" vertex="1" parent="1">
                    <mxGeometry x="-640" y="-810" width="260" height="100" as="geometry"/>
                </mxCell>
                <mxCell id="209" value="" style="swimlane;fontStyle=1;align=center;verticalAlign=top;horizontal=1;startSize=0;collapsible=0;marginBottom=0;html=1;strokeColor=none;fillColor=none;" vertex="1" parent="208">
                    <mxGeometry y="30" width="260" height="70" as="geometry"/>
                </mxCell>
                <mxCell id="210" value="display:richTextField," style="html=1;align=center;verticalAlign=middle;rotatable=0;" vertex="1" parent="209">
                    <mxGeometry width="250" height="30" relative="1" as="geometry">
                        <mxPoint x="5" y="20" as="offset"/>
                    </mxGeometry>
                </mxCell>
                <mxCell id="217" style="edgeStyle=orthogonalEdgeStyle;rounded=0;orthogonalLoop=1;jettySize=auto;html=1;exitX=0.5;exitY=0;exitDx=0;exitDy=0;entryX=0.5;entryY=1;entryDx=0;entryDy=0;" edge="1" parent="1" source="211" target="205">
                    <mxGeometry relative="1" as="geometry">
                        <mxPoint x="-300" y="-1130" as="targetPoint"/>
                    </mxGeometry>
                </mxCell>
                <mxCell id="211" value="&lt;font color=&quot;#4ec9b0&quot; face=&quot;menlo, monaco, courier new, monospace, menlo, monaco, courier new, monospace&quot;&gt;&lt;span style=&quot;font-size: 16px ; font-weight: 400 ; background-color: rgb(30 , 30 , 30)&quot;&gt;GInputTextField&lt;/span&gt;&lt;/font&gt;" style="swimlane;fontStyle=1;align=center;verticalAlign=top;childLayout=stackLayout;horizontal=1;startSize=30;horizontalStack=0;resizeParent=1;resizeParentMax=0;resizeLast=0;collapsible=0;marginBottom=0;html=1;rounded=0;sketch=0;" vertex="1" parent="1">
                    <mxGeometry x="-360" y="-810" width="260" height="100" as="geometry"/>
                </mxCell>
                <mxCell id="212" value="" style="swimlane;fontStyle=1;align=center;verticalAlign=top;horizontal=1;startSize=0;collapsible=0;marginBottom=0;html=1;strokeColor=none;fillColor=none;" vertex="1" parent="211">
                    <mxGeometry y="30" width="260" height="70" as="geometry"/>
                </mxCell>
                <mxCell id="213" value="displayObject:inputTextField,..." style="html=1;align=center;verticalAlign=middle;rotatable=0;" vertex="1" parent="212">
                    <mxGeometry width="250" height="30" relative="1" as="geometry">
                        <mxPoint x="5" y="20" as="offset"/>
                    </mxGeometry>
                </mxCell>
                <mxCell id="227" value="&lt;font color=&quot;#4ec9b0&quot; face=&quot;menlo, monaco, courier new, monospace, menlo, monaco, courier new, monospace&quot;&gt;&lt;span style=&quot;font-size: 16px ; font-weight: 400 ; background-color: rgb(30 , 30 , 30)&quot;&gt;GLoader&lt;/span&gt;&lt;/font&gt;" style="swimlane;fontStyle=1;align=center;verticalAlign=top;childLayout=stackLayout;horizontal=1;startSize=30;horizontalStack=0;resizeParent=1;resizeParentMax=0;resizeLast=0;collapsible=0;marginBottom=0;html=1;rounded=0;sketch=0;" vertex="1" parent="1">
                    <mxGeometry x="-498" y="-1730" width="260" height="120" as="geometry"/>
                </mxCell>
                <mxCell id="228" value="" style="swimlane;fontStyle=1;align=center;verticalAlign=top;horizontal=1;startSize=0;collapsible=0;marginBottom=0;html=1;strokeColor=none;fillColor=none;" vertex="1" parent="227">
                    <mxGeometry y="30" width="260" height="90" as="geometry"/>
                </mxCell>
                <mxCell id="229" value="url，httpRequest" style="html=1;align=center;verticalAlign=middle;rotatable=0;" vertex="1" parent="228">
                    <mxGeometry width="250" height="30" relative="1" as="geometry">
                        <mxPoint x="5" y="20" as="offset"/>
                    </mxGeometry>
                </mxCell>
                <mxCell id="234" value="setUrl(url:string),load(),..." style="html=1;align=center;verticalAlign=middle;rotatable=0;" vertex="1" parent="228">
                    <mxGeometry x="5" y="50" width="250" height="30" as="geometry"/>
                </mxCell>
                <mxCell id="230" style="edgeStyle=orthogonalEdgeStyle;rounded=0;orthogonalLoop=1;jettySize=auto;html=1;exitX=1;exitY=0.25;exitDx=0;exitDy=0;entryX=0;entryY=0.5;entryDx=0;entryDy=0;" edge="1" parent="1" source="228" target="135">
                    <mxGeometry relative="1" as="geometry">
                        <Array as="points">
                            <mxPoint x="-150" y="-1677"/>
                            <mxPoint x="-150" y="-1245"/>
                        </Array>
                    </mxGeometry>
                </mxCell>
                <mxCell id="231" style="edgeStyle=orthogonalEdgeStyle;rounded=0;orthogonalLoop=1;jettySize=auto;html=1;exitX=1;exitY=0.25;exitDx=0;exitDy=0;entryX=0;entryY=0.5;entryDx=0;entryDy=0;" edge="1" parent="1" source="172" target="135">
                    <mxGeometry relative="1" as="geometry">
                        <Array as="points">
                            <mxPoint x="-150" y="-1402"/>
                            <mxPoint x="-150" y="-1245"/>
                        </Array>
                    </mxGeometry>
                </mxCell>
                <mxCell id="232" style="edgeStyle=orthogonalEdgeStyle;rounded=0;orthogonalLoop=1;jettySize=auto;html=1;exitX=1;exitY=0.5;exitDx=0;exitDy=0;entryX=0;entryY=0.5;entryDx=0;entryDy=0;" edge="1" parent="1" source="205" target="135">
                    <mxGeometry relative="1" as="geometry">
                        <Array as="points">
                            <mxPoint x="-150" y="-935"/>
                            <mxPoint x="-150" y="-1245"/>
                        </Array>
                    </mxGeometry>
                </mxCell>
                <mxCell id="236" value="&lt;font color=&quot;#4ec9b0&quot; face=&quot;menlo, monaco, courier new, monospace, menlo, monaco, courier new, monospace&quot;&gt;&lt;span style=&quot;font-size: 16px ; font-weight: 400 ; background-color: rgb(30 , 30 , 30)&quot;&gt;Window（编辑器窗口）&lt;br&gt;&lt;/span&gt;&lt;/font&gt;" style="swimlane;fontStyle=1;align=center;verticalAlign=top;childLayout=stackLayout;horizontal=1;startSize=30;horizontalStack=0;resizeParent=1;resizeParentMax=0;resizeLast=0;collapsible=0;marginBottom=0;html=1;rounded=0;sketch=0;" vertex="1" parent="1">
                    <mxGeometry x="270" y="-130" width="310" height="130" as="geometry"/>
                </mxCell>
                <mxCell id="237" value="" style="swimlane;fontStyle=1;align=center;verticalAlign=top;horizontal=1;startSize=0;collapsible=0;marginBottom=0;html=1;strokeColor=none;fillColor=none;" vertex="1" parent="236">
                    <mxGeometry y="30" width="310" height="100" as="geometry"/>
                </mxCell>
                <mxCell id="238" value="content，uiResouces[]" style="html=1;align=center;verticalAlign=middle;rotatable=0;" vertex="1" parent="237">
                    <mxGeometry width="300" height="30" relative="1" as="geometry">
                        <mxPoint x="5" y="20" as="offset"/>
                    </mxGeometry>
                </mxCell>
                <mxCell id="248" value="add(),remove(),show(),hide(),load()..." style="html=1;align=center;verticalAlign=middle;rotatable=0;" vertex="1" parent="237">
                    <mxGeometry x="5" y="60" width="300" height="30" as="geometry"/>
                </mxCell>
                <mxCell id="239" style="edgeStyle=orthogonalEdgeStyle;rounded=0;orthogonalLoop=1;jettySize=auto;html=1;exitX=0;exitY=0.25;exitDx=0;exitDy=0;entryX=1;entryY=0.5;entryDx=0;entryDy=0;" edge="1" parent="1" source="237" target="153">
                    <mxGeometry relative="1" as="geometry">
                        <mxPoint x="210" y="-797.638916015625" as="targetPoint"/>
                    </mxGeometry>
                </mxCell>
                <mxCell id="240" style="edgeStyle=orthogonalEdgeStyle;rounded=0;orthogonalLoop=1;jettySize=auto;html=1;exitX=0;exitY=0.25;exitDx=0;exitDy=0;entryX=1;entryY=0.5;entryDx=0;entryDy=0;" edge="1" parent="1" source="168" target="153">
                    <mxGeometry relative="1" as="geometry"/>
                </mxCell>
                <mxCell id="241" style="edgeStyle=orthogonalEdgeStyle;rounded=0;orthogonalLoop=1;jettySize=auto;html=1;exitX=0;exitY=0.25;exitDx=0;exitDy=0;entryX=1;entryY=0.5;entryDx=0;entryDy=0;" edge="1" parent="1" source="163" target="153">
                    <mxGeometry relative="1" as="geometry">
                        <mxPoint x="250" y="-1000" as="targetPoint"/>
                    </mxGeometry>
                </mxCell>
                <mxCell id="243" style="edgeStyle=orthogonalEdgeStyle;rounded=0;orthogonalLoop=1;jettySize=auto;html=1;exitX=0;exitY=0.25;exitDx=0;exitDy=0;entryX=1;entryY=0.5;entryDx=0;entryDy=0;" edge="1" parent="1" source="183" target="153">
                    <mxGeometry relative="1" as="geometry"/>
                </mxCell>
                <mxCell id="244" style="edgeStyle=orthogonalEdgeStyle;rounded=0;orthogonalLoop=1;jettySize=auto;html=1;exitX=0;exitY=0.25;exitDx=0;exitDy=0;entryX=1;entryY=0.5;entryDx=0;entryDy=0;" edge="1" parent="1" source="187" target="153">
                    <mxGeometry relative="1" as="geometry"/>
                </mxCell>
                <mxCell id="245" style="edgeStyle=orthogonalEdgeStyle;rounded=0;orthogonalLoop=1;jettySize=auto;html=1;exitX=0;exitY=0.25;exitDx=0;exitDy=0;entryX=1;entryY=0.5;entryDx=0;entryDy=0;" edge="1" parent="1" source="191" target="153">
                    <mxGeometry relative="1" as="geometry"/>
                </mxCell>
                <mxCell id="246" style="edgeStyle=orthogonalEdgeStyle;rounded=0;orthogonalLoop=1;jettySize=auto;html=1;exitX=0;exitY=0.5;exitDx=0;exitDy=0;entryX=1;entryY=0.5;entryDx=0;entryDy=0;" edge="1" parent="1" source="195" target="153">
                    <mxGeometry relative="1" as="geometry"/>
                </mxCell>
                <mxCell id="247" style="edgeStyle=orthogonalEdgeStyle;rounded=0;orthogonalLoop=1;jettySize=auto;html=1;exitX=0;exitY=0.25;exitDx=0;exitDy=0;entryX=1;entryY=0.5;entryDx=0;entryDy=0;" edge="1" parent="1" source="200" target="153">
                    <mxGeometry relative="1" as="geometry"/>
                </mxCell>
                <mxCell id="249" value="&lt;font color=&quot;#4ec9b0&quot; face=&quot;menlo, monaco, courier new, monospace, menlo, monaco, courier new, monospace&quot;&gt;&lt;span style=&quot;font-size: 16px ; font-weight: 400 ; background-color: rgb(30 , 30 , 30)&quot;&gt;GGraph&lt;/span&gt;&lt;/font&gt;" style="swimlane;fontStyle=1;align=center;verticalAlign=top;childLayout=stackLayout;horizontal=1;startSize=30;horizontalStack=0;resizeParent=1;resizeParentMax=0;resizeLast=0;collapsible=0;marginBottom=0;html=1;rounded=0;sketch=0;" vertex="1" parent="1">
                    <mxGeometry x="-498" y="-1600" width="260" height="130" as="geometry"/>
                </mxCell>
                <mxCell id="250" value="" style="swimlane;fontStyle=1;align=center;verticalAlign=top;horizontal=1;startSize=0;collapsible=0;marginBottom=0;html=1;strokeColor=none;fillColor=none;" vertex="1" parent="249">
                    <mxGeometry y="30" width="260" height="100" as="geometry"/>
                </mxCell>
                <mxCell id="251" value="lineSize,color,alpha..." style="html=1;align=center;verticalAlign=middle;rotatable=0;" vertex="1" parent="250">
                    <mxGeometry width="250" height="30" relative="1" as="geometry">
                        <mxPoint x="5" y="20" as="offset"/>
                    </mxGeometry>
                </mxCell>
                <mxCell id="252" value="" style="swimlane;fontStyle=1;align=center;verticalAlign=top;horizontal=1;startSize=0;collapsible=0;marginBottom=0;html=1;strokeColor=none;fillColor=none;" vertex="1" parent="250">
                    <mxGeometry y="10" width="260" height="90" as="geometry"/>
                </mxCell>
                <mxCell id="253" value="drawRect(),drawCicle()..." style="html=1;align=center;verticalAlign=middle;rotatable=0;" vertex="1" parent="252">
                    <mxGeometry width="250" height="30" relative="1" as="geometry">
                        <mxPoint x="5" y="50" as="offset"/>
                    </mxGeometry>
                </mxCell>
                <mxCell id="255" value="&lt;font color=&quot;#4ec9b0&quot; face=&quot;menlo, monaco, courier new, monospace, menlo, monaco, courier new, monospace&quot;&gt;&lt;span style=&quot;font-size: 16px ; font-weight: 400 ; background-color: rgb(30 , 30 , 30)&quot;&gt;InputTextField extends Phaser.GameObject.DOMElement&lt;/span&gt;&lt;/font&gt;" style="swimlane;fontStyle=1;align=center;verticalAlign=top;childLayout=stackLayout;horizontal=1;startSize=30;horizontalStack=0;resizeParent=1;resizeParentMax=0;resizeLast=0;collapsible=0;marginBottom=0;html=1;rounded=0;sketch=0;" vertex="1" parent="1">
                    <mxGeometry x="-649" y="-530" width="579" height="122" as="geometry"/>
                </mxCell>
                <mxCell id="256" value="" style="swimlane;fontStyle=1;align=center;verticalAlign=top;horizontal=1;startSize=0;collapsible=0;marginBottom=0;html=1;strokeColor=none;fillColor=none;" vertex="1" parent="255">
                    <mxGeometry y="30" width="579" height="92" as="geometry"/>
                </mxCell>
                <mxCell id="257" value="x,y,width,height,inputType..." style="html=1;align=center;verticalAlign=middle;rotatable=0;" vertex="1" parent="256">
                    <mxGeometry width="570" height="30" relative="1" as="geometry">
                        <mxPoint x="5" y="20" as="offset"/>
                    </mxGeometry>
                </mxCell>
                <mxCell id="258" value="setFocus(),setBlur(),setText(text),this.node.addListener(&quot;keypress&quot;),resize(width,height),setTxtChange()" style="html=1;align=center;verticalAlign=middle;rotatable=0;" vertex="1" parent="256">
                    <mxGeometry x="4.5" y="50" width="570" height="30" as="geometry"/>
                </mxCell>
                <mxCell id="259" value="&lt;font color=&quot;#4ec9b0&quot; face=&quot;menlo, monaco, courier new, monospace, menlo, monaco, courier new, monospace&quot;&gt;&lt;span style=&quot;font-size: 16px ; font-weight: 400 ; background-color: rgb(30 , 30 , 30)&quot;&gt;RichTextField extends Phaser.GameObject.Container&lt;/span&gt;&lt;/font&gt;" style="swimlane;fontStyle=1;align=center;verticalAlign=top;childLayout=stackLayout;horizontal=1;startSize=30;horizontalStack=0;resizeParent=1;resizeParentMax=0;resizeLast=0;collapsible=0;marginBottom=0;html=1;rounded=0;sketch=0;" vertex="1" parent="1">
                    <mxGeometry x="-638" y="-690" width="540" height="120" as="geometry"/>
                </mxCell>
                <mxCell id="260" value="" style="swimlane;fontStyle=1;align=center;verticalAlign=top;horizontal=1;startSize=0;collapsible=0;marginBottom=0;html=1;strokeColor=none;fillColor=none;" vertex="1" parent="259">
                    <mxGeometry y="30" width="540" height="90" as="geometry"/>
                </mxCell>
                <mxCell id="261" value="text:Phaser.Text,displayList:any[].." style="html=1;align=center;verticalAlign=middle;rotatable=0;" vertex="1" parent="260">
                    <mxGeometry width="530" height="30" relative="1" as="geometry">
                        <mxPoint x="5" y="20" as="offset"/>
                    </mxGeometry>
                </mxCell>
                <mxCell id="262" value="parseText(data:any):string,add(display:any)..." style="html=1;align=center;verticalAlign=middle;rotatable=0;" vertex="1" parent="260">
                    <mxGeometry x="5" y="50" width="530" height="30" as="geometry"/>
                </mxCell>
                <mxCell id="263" value="&lt;font color=&quot;#4ec9b0&quot; face=&quot;menlo, monaco, courier new, monospace, menlo, monaco, courier new, monospace&quot;&gt;&lt;span style=&quot;font-size: 16px ; font-weight: 400 ; background-color: rgb(30 , 30 , 30)&quot;&gt;GTree&lt;br&gt;&lt;br&gt;&lt;/span&gt;&lt;/font&gt;" style="swimlane;fontStyle=1;align=center;verticalAlign=top;childLayout=stackLayout;horizontal=1;startSize=30;horizontalStack=0;resizeParent=1;resizeParentMax=0;resizeLast=0;collapsible=0;marginBottom=0;html=1;rounded=0;sketch=0;" vertex="1" parent="1">
                    <mxGeometry x="630" y="-470" width="340" height="140" as="geometry"/>
                </mxCell>
                <mxCell id="264" value="" style="swimlane;fontStyle=1;align=center;verticalAlign=top;horizontal=1;startSize=0;collapsible=0;marginBottom=0;html=1;strokeColor=none;fillColor=none;" vertex="1" parent="263">
                    <mxGeometry y="30" width="340" height="110" as="geometry"/>
                </mxCell>
                <mxCell id="265" value="rootNode:GTreeNode,treeHanlder[ ],isexpand" style="html=1;align=center;verticalAlign=middle;rotatable=0;" vertex="1" parent="264">
                    <mxGeometry width="330" height="30" relative="1" as="geometry">
                        <mxPoint x="5" y="20" as="offset"/>
                    </mxGeometry>
                </mxCell>
                <mxCell id="266" value="&lt;div style=&quot;text-align: left&quot;&gt;&lt;span&gt;selectNode(node),closeNode(node),expandAll(),collapseAll(),&lt;/span&gt;&lt;/div&gt;" style="html=1;align=center;verticalAlign=middle;rotatable=0;" vertex="1" parent="264">
                    <mxGeometry x="5" y="60" width="330" height="30" as="geometry"/>
                </mxCell>
                <mxCell id="267" value="&lt;font color=&quot;#4ec9b0&quot; face=&quot;menlo, monaco, courier new, monospace, menlo, monaco, courier new, monospace&quot;&gt;&lt;span style=&quot;font-size: 16px ; font-weight: 400 ; background-color: rgb(30 , 30 , 30)&quot;&gt;GGroup&lt;/span&gt;&lt;/font&gt;" style="swimlane;fontStyle=1;align=center;verticalAlign=top;childLayout=stackLayout;horizontal=1;startSize=30;horizontalStack=0;resizeParent=1;resizeParentMax=0;resizeLast=0;collapsible=0;marginBottom=0;html=1;rounded=0;sketch=0;" vertex="1" parent="1">
                    <mxGeometry x="-498" y="-1160" width="260" height="130" as="geometry"/>
                </mxCell>
                <mxCell id="268" value="" style="swimlane;fontStyle=1;align=center;verticalAlign=top;horizontal=1;startSize=0;collapsible=0;marginBottom=0;html=1;strokeColor=none;fillColor=none;" vertex="1" parent="267">
                    <mxGeometry y="30" width="260" height="100" as="geometry"/>
                </mxCell>
                <mxCell id="269" value="isEmpty" style="html=1;align=center;verticalAlign=middle;rotatable=0;" vertex="1" parent="268">
                    <mxGeometry width="250" height="30" relative="1" as="geometry">
                        <mxPoint x="5" y="20" as="offset"/>
                    </mxGeometry>
                </mxCell>
                <mxCell id="270" value="updatePos(x,y),updateAlpha(alpha)..." style="html=1;align=center;verticalAlign=middle;rotatable=0;" vertex="1" parent="268">
                    <mxGeometry x="5" y="60" width="250" height="30" as="geometry"/>
                </mxCell>
                <mxCell id="271" style="edgeStyle=orthogonalEdgeStyle;rounded=0;orthogonalLoop=1;jettySize=auto;html=1;exitX=1;exitY=0.5;exitDx=0;exitDy=0;entryX=0;entryY=0.5;entryDx=0;entryDy=0;" edge="1" parent="1" source="268" target="135">
                    <mxGeometry relative="1" as="geometry">
                        <Array as="points">
                            <mxPoint x="-150" y="-1080"/>
                            <mxPoint x="-150" y="-1245"/>
                        </Array>
                    </mxGeometry>
                </mxCell>
                <mxCell id="272" style="edgeStyle=orthogonalEdgeStyle;rounded=0;orthogonalLoop=1;jettySize=auto;html=1;exitX=0;exitY=0.5;exitDx=0;exitDy=0;entryX=1;entryY=0.5;entryDx=0;entryDy=0;" edge="1" parent="1" source="264" target="195">
                    <mxGeometry relative="1" as="geometry"/>
                </mxCell>
                <mxCell id="273" value="&lt;font color=&quot;#4ec9b0&quot; face=&quot;menlo, monaco, courier new, monospace, menlo, monaco, courier new, monospace&quot;&gt;&lt;span style=&quot;font-size: 16px ; font-weight: 400 ; background-color: rgb(30 , 30 , 30)&quot;&gt;GTreeNode&lt;br&gt;&lt;br&gt;&lt;/span&gt;&lt;/font&gt;" style="swimlane;fontStyle=1;align=center;verticalAlign=top;childLayout=stackLayout;horizontal=1;startSize=30;horizontalStack=0;resizeParent=1;resizeParentMax=0;resizeLast=0;collapsible=0;marginBottom=0;html=1;rounded=0;sketch=0;" vertex="1" parent="1">
                    <mxGeometry x="1010" y="-470" width="550" height="140" as="geometry"/>
                </mxCell>
                <mxCell id="274" value="" style="swimlane;fontStyle=1;align=center;verticalAlign=top;horizontal=1;startSize=0;collapsible=0;marginBottom=0;html=1;strokeColor=none;fillColor=none;" vertex="1" parent="273">
                    <mxGeometry y="30" width="550" height="110" as="geometry"/>
                </mxCell>
                <mxCell id="275" value="children:GTreeNode[],parent:GTreeNode,tree:GTree,cell:GComponent" style="html=1;align=center;verticalAlign=middle;rotatable=0;" vertex="1" parent="274">
                    <mxGeometry width="540" height="30" relative="1" as="geometry">
                        <mxPoint x="5" y="20" as="offset"/>
                    </mxGeometry>
                </mxCell>
                <mxCell id="276" value="addChild(child:GTreeNode),removeChild(child:GTreeNode),expand(),close(),setTree(tree)..." style="html=1;align=center;verticalAlign=middle;rotatable=0;" vertex="1" parent="274">
                    <mxGeometry x="5" y="60" width="540" height="30" as="geometry"/>
                </mxCell>
                <mxCell id="277" value="&lt;font color=&quot;#4ec9b0&quot; face=&quot;menlo, monaco, courier new, monospace, menlo, monaco, courier new, monospace&quot;&gt;&lt;span style=&quot;font-size: 16px ; font-weight: 400 ; background-color: rgb(30 , 30 , 30)&quot;&gt;GMovieClip&lt;/span&gt;&lt;/font&gt;" style="swimlane;fontStyle=1;align=center;verticalAlign=top;childLayout=stackLayout;horizontal=1;startSize=30;horizontalStack=0;resizeParent=1;resizeParentMax=0;resizeLast=0;collapsible=0;marginBottom=0;html=1;rounded=0;sketch=0;" vertex="1" parent="1">
                    <mxGeometry x="-498" y="-1310" width="260" height="130" as="geometry"/>
                </mxCell>
                <mxCell id="278" value="" style="swimlane;fontStyle=1;align=center;verticalAlign=top;horizontal=1;startSize=0;collapsible=0;marginBottom=0;html=1;strokeColor=none;fillColor=none;" vertex="1" parent="277">
                    <mxGeometry y="30" width="260" height="100" as="geometry"/>
                </mxCell>
                <mxCell id="279" value="display:MovieClip" style="html=1;align=center;verticalAlign=middle;rotatable=0;" vertex="1" parent="278">
                    <mxGeometry width="250" height="30" relative="1" as="geometry">
                        <mxPoint x="5" y="20" as="offset"/>
                    </mxGeometry>
                </mxCell>
                <mxCell id="280" value="createDisplayObject(),start(),stop(),pause()..." style="html=1;align=center;verticalAlign=middle;rotatable=0;" vertex="1" parent="278">
                    <mxGeometry x="5" y="60" width="250" height="30" as="geometry"/>
                </mxCell>
                <mxCell id="281" value="&lt;font color=&quot;#4ec9b0&quot; face=&quot;menlo, monaco, courier new, monospace, menlo, monaco, courier new, monospace&quot;&gt;&lt;span style=&quot;font-size: 16px ; font-weight: 400 ; background-color: rgb(30 , 30 , 30)&quot;&gt;MovieClip&lt;/span&gt;&lt;/font&gt;" style="swimlane;fontStyle=1;align=center;verticalAlign=top;childLayout=stackLayout;horizontal=1;startSize=30;horizontalStack=0;resizeParent=1;resizeParentMax=0;resizeLast=0;collapsible=0;marginBottom=0;html=1;rounded=0;sketch=0;" vertex="1" parent="1">
                    <mxGeometry x="-880" y="-1310" width="360" height="130" as="geometry"/>
                </mxCell>
                <mxCell id="282" value="" style="swimlane;fontStyle=1;align=center;verticalAlign=top;horizontal=1;startSize=0;collapsible=0;marginBottom=0;html=1;strokeColor=none;fillColor=none;" vertex="1" parent="281">
                    <mxGeometry y="30" width="360" height="100" as="geometry"/>
                </mxCell>
                <mxCell id="283" value="currentFrame,frames:any[],repeat:number,repeatDelay:number" style="html=1;align=center;verticalAlign=middle;rotatable=0;" vertex="1" parent="282">
                    <mxGeometry width="350" height="30" relative="1" as="geometry">
                        <mxPoint x="5" y="20" as="offset"/>
                    </mxGeometry>
                </mxCell>
                <mxCell id="284" value="start(),stop(),update(),setFrame(frame:Frame).." style="html=1;align=center;verticalAlign=middle;rotatable=0;" vertex="1" parent="282">
                    <mxGeometry x="5" y="60" width="350" height="30" as="geometry"/>
                </mxCell>
                <mxCell id="286" style="edgeStyle=orthogonalEdgeStyle;rounded=0;orthogonalLoop=1;jettySize=auto;html=1;exitX=1;exitY=0.25;exitDx=0;exitDy=0;entryX=0;entryY=0.5;entryDx=0;entryDy=0;" edge="1" parent="1" source="278" target="135">
                    <mxGeometry relative="1" as="geometry">
                        <Array as="points">
                            <mxPoint x="-238" y="-1245"/>
                        </Array>
                    </mxGeometry>
                </mxCell>
                <mxCell id="287" value="&lt;font color=&quot;#4ec9b0&quot; face=&quot;menlo, monaco, courier new, monospace, menlo, monaco, courier new, monospace&quot;&gt;&lt;span style=&quot;font-size: 16px ; font-weight: 400 ; background-color: rgb(30 , 30 , 30)&quot;&gt;Frame&lt;/span&gt;&lt;/font&gt;" style="swimlane;fontStyle=1;align=center;verticalAlign=top;childLayout=stackLayout;horizontal=1;startSize=30;horizontalStack=0;resizeParent=1;resizeParentMax=0;resizeLast=0;collapsible=0;marginBottom=0;html=1;rounded=0;sketch=0;" vertex="1" parent="1">
                    <mxGeometry x="-1170" y="-1290" width="270" height="90" as="geometry"/>
                </mxCell>
                <mxCell id="288" value="" style="swimlane;fontStyle=1;align=center;verticalAlign=top;horizontal=1;startSize=0;collapsible=0;marginBottom=0;html=1;strokeColor=none;fillColor=none;" vertex="1" parent="287">
                    <mxGeometry y="30" width="270" height="60" as="geometry"/>
                </mxCell>
                <mxCell id="289" value="texture:Phaser.Texture,addDealy:number" style="html=1;align=center;verticalAlign=middle;rotatable=0;" vertex="1" parent="288">
                    <mxGeometry width="260" height="30" relative="1" as="geometry">
                        <mxPoint x="5" y="20" as="offset"/>
                    </mxGeometry>
                </mxCell>
                <mxCell id="298" style="edgeStyle=orthogonalEdgeStyle;rounded=0;orthogonalLoop=1;jettySize=auto;html=1;exitX=0.5;exitY=0;exitDx=0;exitDy=0;entryX=0.5;entryY=1;entryDx=0;entryDy=0;" edge="1" parent="1" source="295" target="205">
                    <mxGeometry relative="1" as="geometry"/>
                </mxCell>
                <mxCell id="295" value="&lt;font color=&quot;#4ec9b0&quot; face=&quot;menlo, monaco, courier new, monospace, menlo, monaco, courier new, monospace&quot;&gt;&lt;span style=&quot;font-size: 16px ; font-weight: 400 ; background-color: rgb(30 , 30 , 30)&quot;&gt;GBasicTextField&lt;/span&gt;&lt;/font&gt;" style="swimlane;fontStyle=1;align=center;verticalAlign=top;childLayout=stackLayout;horizontal=1;startSize=30;horizontalStack=0;resizeParent=1;resizeParentMax=0;resizeLast=0;collapsible=0;marginBottom=0;html=1;rounded=0;sketch=0;" vertex="1" parent="1">
                    <mxGeometry x="-920" y="-810" width="260" height="100" as="geometry"/>
                </mxCell>
                <mxCell id="296" value="" style="swimlane;fontStyle=1;align=center;verticalAlign=top;horizontal=1;startSize=0;collapsible=0;marginBottom=0;html=1;strokeColor=none;fillColor=none;" vertex="1" parent="295">
                    <mxGeometry y="30" width="260" height="70" as="geometry"/>
                </mxCell>
                <mxCell id="297" value="display:Phaser.Text" style="html=1;align=center;verticalAlign=middle;rotatable=0;" vertex="1" parent="296">
                    <mxGeometry width="250" height="30" relative="1" as="geometry">
                        <mxPoint x="5" y="20" as="offset"/>
                    </mxGeometry>
                </mxCell>
                <mxCell id="299" value="&lt;font color=&quot;#4ec9b0&quot; face=&quot;menlo, monaco, courier new, monospace, menlo, monaco, courier new, monospace&quot;&gt;&lt;span style=&quot;font-size: 16px ; font-weight: 400 ; background-color: rgb(30 , 30 , 30)&quot;&gt;GRoot(显示对象根节点，phaser.scene)&lt;br&gt;&lt;/span&gt;&lt;/font&gt;" style="swimlane;fontStyle=1;align=center;verticalAlign=top;childLayout=stackLayout;horizontal=1;startSize=30;horizontalStack=0;resizeParent=1;resizeParentMax=0;resizeLast=0;collapsible=0;marginBottom=0;html=1;rounded=0;sketch=0;" vertex="1" parent="1">
                    <mxGeometry x="260" y="-1310" width="340" height="100" as="geometry"/>
                </mxCell>
                <mxCell id="300" value="" style="swimlane;fontStyle=1;align=center;verticalAlign=top;horizontal=1;startSize=0;collapsible=0;marginBottom=0;html=1;strokeColor=none;fillColor=none;" vertex="1" parent="299">
                    <mxGeometry y="30" width="340" height="70" as="geometry"/>
                </mxCell>
                <mxCell id="301" value="add(child),remove(child)..." style="html=1;align=center;verticalAlign=middle;rotatable=0;" vertex="1" parent="300">
                    <mxGeometry width="330" height="30" relative="1" as="geometry">
                        <mxPoint x="5" y="20" as="offset"/>
                    </mxGeometry>
                </mxCell>
            </root>
        </mxGraphModel>
    </diagram>
</mxfile>